<?xml  version="1.0" encoding="UTF-8"?>
<!DOCTYPE svg PUBLIC "-//W3C//DTD SVG 1.0//EN" "http://www.w3.org/TR/2001/REC-SVG-20010904/DTD/svg10.dtd" >
<svg xmlns="http://www.w3.org/2000/svg" >
<metadata>
<version>1.0</version>
<id><![CDATA[Neo Sans W01 Bold]]></id>
<vendor>Monotype Imaging Inc.</vendor>
<credits>
<name>Fonts.com WebFonts</name>
<URL>http://webfonts.fonts.com</URL>
<role>Home of the Web fonts</role>
</credits>
<license>
<URL>http://webfonts.fonts.com/Legal</URL>
</license>
<copyright><![CDATA[Copyright 2004 Monotype Imaging Inc. All Rights Reserved. Neo Sans is designed by Sebastian Lester.]]></copyright>
<trademark><![CDATA[Neo Sans is a trademark of Monotype Imaging Inc. and may be registered in certain jurisdictions.]]></trademark>
<licensee>
<name></name>
</licensee>
</metadata>
<defs >
<font horiz-adv-x="559" id="0b4cc213-f9e9-4cb1-aa3c-64e91a1328dc">
<font-face font-family="" panose-1="2 11 8 4 3 5 4 4 2 4" ascent="1012" descent="-216" units-per-em="1000" alphabetic="0">
</font-face>
<missing-glyph horiz-adv-x="0" />

<glyph unicode="&#xA;" />
<glyph unicode="&#xD;" horiz-adv-x="0" />
<glyph unicode=" " horiz-adv-x="260" />
<glyph unicode="!" horiz-adv-x="273" d="M220 747L200 248Q200 240 194 234T180 227H95Q87 227 80 233T73 248L53 747V748Q53 756 60 761T75 767H200Q208 767 214 762T220 748V747ZM215 20Q215 12 210 6T196 0H78Q70 0 64 6T58 20V146Q58 154 64 159T78 165H196Q215 165 215 146V20Z"  />
<glyph unicode="&quot;" horiz-adv-x="472" d="M449 756Q449 754 447 748L372 529Q368 519 365 515T353 510H252Q243 510 243 520Q243 522 243 524T244 529L298 748Q302 767 318 767H437Q449 767 449 756ZM230 756Q230 754 228 748L153 529Q149 519 146 515T134 510H33Q24 510 24 520Q24 522 24 524T25 529L79 748Q83 767 99 767H218Q230 767 230 756Z"  />
<glyph unicode="#" horiz-adv-x="699" d="M651 537L639 461Q637 450 624 450H539L524 289H608Q614 289 620 285T626 275V273L615 202Q614 197 609 192T599 187H515L501 19Q500 11 496 6T483 0H381Q373 0 369 5T365 17V19L379 187H266L251 19Q250 11 246 6T233 0H130Q123 0 119 5T114 17V19L128 187H43Q29 187 29 200V202L41 277Q43 289 55 289H138L152 450H67Q53 450 53 462V464L65 541Q66 546 71 549T81 552H161L176 724Q177 732 182 737T195 743H298Q305 743 309 738T313 726V724L298 552H411L427 724Q428 732 433 737T446 743H548Q556 743 559 738T563 726V724L547 552H634Q640 552 645 549T651 539V537ZM290 450L275 289H388L403 450H290Z"  />
<glyph unicode="$" horiz-adv-x="645" d="M575 210Q575 177 565 144T533 82T476 31T389 -1V-95Q389 -103 383 -109T369 -115H259Q251 -115 245 -109T239 -95V-6Q201 -4 170 1T112 13Q104 15 99 20T93 33V131Q93 139 98 144T112 150H114Q129 148 154 146T206 142T259 139T303 138Q355 138 374 155T393 208Q393 230 380 245T327 284L189 366Q154 387 131 409T95 455T76 504T70 557Q70 591 78 621T107 677T159 719T239 745V831Q239 839 245 845T259 851H369Q377 851 383 845T389 831V749Q433 746 474 741T535 730Q543 728 548 724T554 711V612Q554 604 549 599T536 594H534Q487 599 430 602T322 605Q280 605 263 593T245 552Q245 543 248 535T258 519T279 502T312 482L439 413Q516 371 545 321T575 210Z"  />
<glyph unicode="%" horiz-adv-x="839" d="M801 166Q801 78 763 36T654 -6Q583 -6 545 36T506 166V241Q506 329 544 371T654 413Q725 413 763 371T801 241V166ZM698 735Q698 728 694 723L278 21Q272 10 268 5T255 0H152Q141 0 141 11Q141 15 144 21L560 723Q567 734 572 738T585 743H688Q698 743 698 735ZM334 502Q334 414 296 372T186 330Q115 330 77 372T38 502V577Q38 665 76 706T186 748Q257 748 295 707T334 577V502ZM701 241Q701 292 689 309T654 326Q632 326 619 309T606 241V166Q606 115 619 98T654 81Q676 81 688 98T701 166V241ZM233 577Q233 628 221 645T186 662Q164 662 151 645T138 577V502Q138 451 151 434T186 416Q208 416 220 433T233 502V577Z"  />
<glyph unicode="&amp;" horiz-adv-x="732" d="M714 12Q714 0 702 0H560Q554 0 551 1T543 8L513 40Q475 17 429 4T327 -9Q268 -9 218 1T130 35T71 96T50 187V196Q50 261 85 306T183 390L175 399Q148 430 131 454T103 498T90 536T86 570V579Q86 616 100 647T143 702T216 738T323 752Q378 752 421 740T492 704T536 649T551 579V570Q551 535 541 508T512 459T470 419T419 383L388 363L518 226Q526 246 530 274T535 350V358Q535 366 540 372T553 378H646Q654 378 659 372T665 358V350Q665 294 654 240T607 132L709 24Q714 19 714 12ZM402 579Q402 607 383 623T323 640Q279 640 257 624T234 579V570Q234 559 235 549T242 528T259 501T290 467L298 459L324 475Q347 489 362 500T386 522T398 544T402 570V579ZM274 293Q238 271 227 248T216 196V187Q216 147 246 127T327 107Q386 107 427 130L274 293Z"  />
<glyph unicode="&apos;" horiz-adv-x="253" d="M230 756Q230 754 228 748L153 529Q149 519 146 515T134 510H33Q24 510 24 520Q24 522 24 524T25 529L79 748Q83 767 99 767H218Q230 767 230 756Z"  />
<glyph unicode="(" horiz-adv-x="361" d="M328 -184Q328 -194 316 -194H216Q205 -194 197 -191T182 -180Q150 -135 126 -88T85 14T60 130T51 265V283Q51 428 84 534T182 729Q188 737 196 740T216 743H316Q328 743 328 733Q328 727 323 717Q302 679 283 634T248 534T224 418T215 283V265Q215 193 224 131T248 15T282 -84T323 -168Q328 -178 328 -184Z"  />
<glyph unicode=")" horiz-adv-x="361" d="M310 265Q310 192 302 130T277 14T236 -87T179 -180Q173 -188 165 -191T145 -194H45Q33 -194 33 -184Q33 -178 38 -168Q59 -130 78 -85T113 14T137 130T146 265V283Q146 355 137 417T113 534T79 633T38 717Q33 727 33 733Q33 743 45 743H145Q156 743 164 740T179 729Q243 640 276 534T310 283V265H310Z"  />
<glyph unicode="*" horiz-adv-x="479" d="M445 570Q445 560 430 555L315 521L387 423Q392 415 392 409Q392 401 386 397L334 359Q329 356 325 356Q316 356 309 366L240 466L171 366Q164 356 155 356Q150 356 146 359L93 397Q86 401 86 409Q86 412 88 415T92 423L164 521L50 555Q34 560 34 571Q34 574 35 576L55 639Q58 649 68 649Q71 649 73 649T79 647L194 609L191 728Q191 736 195 742T207 749H273Q281 749 284 743T288 728L287 609L400 647Q403 648 405 648T411 649Q421 649 424 639L444 576Q445 574 445 570Z"  />
<glyph unicode="+" horiz-adv-x="645" d="M573 346Q573 338 567 334T553 330H383V161Q383 153 379 147T367 141H277Q269 141 265 147T261 161V330H92Q84 330 78 334T72 346V436Q72 444 78 448T92 452H261V622Q261 630 265 636T277 642H367Q375 642 379 636T383 622V452H553Q561 452 567 448T573 436V346H573Z"  />
<glyph unicode="&#x2c;" horiz-adv-x="274" d="M231 153Q231 150 229 146L133 -78Q129 -86 126 -92T114 -98H26Q19 -98 14 -94T9 -83Q9 -81 9 -81T10 -78L74 146Q79 165 94 165H216Q231 165 231 153Z"  />
<glyph unicode="-" horiz-adv-x="302" d="M268 264Q268 256 262 251T248 246H54Q46 246 40 251T34 264V344Q34 352 40 357T54 363H248Q256 363 262 358T268 344V264H268Z"  />
<glyph unicode="." horiz-adv-x="274" d="M216 20Q216 12 210 6T196 0H79Q71 0 65 6T58 20V146Q58 154 64 159T79 165H196Q204 165 210 160T216 146V20H216Z"  />
<glyph unicode="/" horiz-adv-x="405" d="M391 727Q391 726 391 726T390 723L179 21Q177 13 172 7T159 0H32Q24 0 19 5T13 17Q13 18 13 19T14 21L226 723Q228 731 233 737T246 743H373Q380 743 385 739T391 727Z"  />
<glyph unicode="0" horiz-adv-x="645" d="M592 328Q592 238 574 174T521 70T436 10T322 -9Q258 -9 208 10T124 69T71 174T53 328V414Q53 504 71 568T123 673T208 733T322 752Q386 752 436 733T520 673T573 568T592 414V328ZM421 414Q421 473 414 511T393 571T361 601T322 610Q301 610 283 602T252 571T232 511T224 414V328Q224 269 231 231T252 171T283 141T322 133Q343 133 361 141T392 171T413 231T421 328V414Z"  />
<glyph unicode="1" horiz-adv-x="645" d="M254 142V572L124 516Q116 513 112 513Q101 513 101 526V640Q101 650 111 654L292 739Q301 743 315 743H405Q424 743 424 724V142H557Q565 142 571 137T577 123V20Q577 12 571 6T557 0H121Q113 0 107 6T101 20V123Q101 131 107 136T121 142H254Z"  />
<glyph unicode="2" horiz-adv-x="645" d="M570 561Q570 500 541 456T455 373L370 316Q338 295 312 276T266 236T236 194T225 146V142H541Q549 142 555 137T561 123V20Q561 12 555 6T541 0H96Q88 0 82 6T76 20V122Q76 205 115 270T212 376L304 441Q337 464 357 478T388 504T402 527T406 557Q406 589 384 603T300 617Q254 617 202 613T103 604H101Q93 604 88 610T83 624V702Q83 710 88 714T102 721Q144 734 201 743T315 752Q453 752 511 705T570 561Z"  />
<glyph unicode="3" horiz-adv-x="645" d="M566 212Q566 155 547 113T494 44T411 4T305 -9Q246 -9 192 -1T98 19Q90 21 85 25T79 38V118Q79 126 84 131T97 136H99Q152 131 204 129T298 127Q352 127 374 148T397 212V230Q397 247 394 262T381 290T356 309T316 316H140Q132 316 127 322T121 336V421Q121 440 140 440H312Q336 440 352 447T379 467T393 494T397 527V541Q397 575 377 595T298 616Q272 616 249 615T202 613T154 609T101 604H99Q91 604 86 609T81 622V702Q81 710 87 714T101 721Q140 733 193 742T305 752Q366 752 414 741T496 706T548 642T566 547V533Q566 489 542 446T477 380Q519 358 542 319T566 230V212H566Z"  />
<glyph unicode="4" horiz-adv-x="645" d="M606 187Q606 179 600 173T586 167H520V20Q520 12 515 6T501 0H368Q360 0 355 6T349 20V167H60Q52 167 46 173T40 187V284Q40 299 51 315L367 729Q372 736 378 739T393 743H500Q508 743 514 737T520 723V299H586Q594 299 600 293T606 279V187ZM354 519Q354 525 350 525Q349 525 347 523L190 309Q188 307 188 303Q188 299 194 299H354V519Z"  />
<glyph unicode="5" horiz-adv-x="645" d="M566 236Q566 117 497 54T296 -9Q248 -9 196 -2T99 20Q91 22 85 26T79 42V121Q79 129 84 134T97 139H99Q123 136 148 134T198 131T244 128T279 127Q315 127 337 134T372 156T389 190T394 236V244Q394 269 388 286T365 315T321 331T252 336H97Q91 336 87 340T83 350V351L114 724Q115 732 120 737T134 743H523Q531 743 537 738T543 724V624Q543 616 537 611T523 605H251L239 467H268Q333 467 387 457T482 421T544 352T566 244V236H566Z"  />
<glyph unicode="6" horiz-adv-x="645" d="M589 245Q589 188 572 141T522 61T439 10T325 -9Q265 -9 216 9T131 63T76 155T57 285V438Q57 523 76 582T132 679T219 734T335 752Q403 752 452 746T532 732Q554 726 554 710V623Q554 602 536 602H531Q513 605 491 607T444 612T396 615T349 616Q283 616 254 585T224 470V463Q244 467 277 471T342 475Q393 475 437 464T516 426T569 357T589 252V245ZM422 252Q422 283 414 303T391 335T357 351T315 356Q305 356 293 355T269 353T245 349T224 346V285Q224 234 231 202T252 152T284 128T325 121Q346 121 363 126T394 146T414 184T422 245V252Z"  />
<glyph unicode="7" horiz-adv-x="645" d="M566 637Q566 627 562 616T550 591L287 19Q278 0 262 0H125Q107 0 107 12Q107 17 110 23L382 594Q383 596 383 599Q383 605 376 605H99Q91 605 85 610T78 624V724Q78 732 84 737T99 743H532Q546 743 556 734T566 710V637H566Z"  />
<glyph unicode="8" horiz-adv-x="645" d="M593 213Q593 159 574 118T519 48T436 6T328 -9H317Q258 -9 210 5T126 48T72 117T52 213V226Q52 276 75 317T137 386Q56 441 56 536V547Q56 599 74 638T127 702T209 739T317 752H328Q387 752 435 740T518 702T571 638T590 547V536Q590 442 508 386Q546 358 569 317T593 226V213ZM429 536Q429 576 406 601T328 627H317Q262 627 239 602T216 536V531Q216 493 238 469T307 444H338Q385 444 407 468T429 531V536ZM428 228Q428 245 423 262T408 293T380 315T338 324H307Q282 324 265 316T238 294T222 263T217 228V218Q217 174 242 146T317 117H328Q378 117 403 145T428 218V228Z"  />
<glyph unicode="9" horiz-adv-x="645" d="M589 305Q589 220 570 161T514 64T427 9T311 -9Q243 -9 194 -3T114 11Q92 16 92 33V120Q92 141 110 141H115Q133 138 155 136T202 131T250 128T297 127Q363 127 392 158T422 273V280Q402 276 369 272T304 268Q253 268 209 279T130 317T77 386T57 491V498Q57 555 74 602T124 682T207 733T321 752Q381 752 430 734T515 680T570 588T589 458V305ZM422 458Q422 509 415 541T394 591T362 615T321 622Q300 622 283 617T252 597T232 559T224 498V491Q224 460 232 440T255 408T289 392T331 387Q341 387 353 388T377 390T401 393T422 397V458Z"  />
<glyph unicode=":" horiz-adv-x="275" d="M216 402Q216 394 210 389T196 383H79Q71 383 65 388T58 402V528Q58 536 64 542T79 548H196Q204 548 210 542T216 528V402ZM216 20Q216 12 210 6T196 0H79Q71 0 65 6T58 20V146Q58 154 64 159T79 165H196Q204 165 210 160T216 146V20Z"  />
<glyph unicode=";" horiz-adv-x="275" d="M216 402Q216 394 210 389T195 383H78Q70 383 64 388T58 402V528Q58 536 64 542T78 548H195Q203 548 209 542T216 528V402ZM216 151Q216 148 214 144L119 -80Q115 -88 111 -94T99 -100H11Q4 -100 -1 -96T-6 -85Q-6 -83 -6 -83T-5 -80L59 144Q64 163 79 163H201Q216 163 216 151Z"  />
<glyph unicode="&lt;" horiz-adv-x="645" d="M536 150Q536 137 524 137H385Q377 137 372 140T361 148L128 355Q108 372 108 391Q108 410 128 427L361 634Q366 639 371 642T385 645H524Q536 645 536 632Q536 626 530 620L271 391L530 162Q536 156 536 150Z"  />
<glyph unicode="=" horiz-adv-x="645" d="M552 474Q552 466 546 462T532 458H113Q105 458 99 462T93 474V564Q93 572 99 576T113 580H532Q540 580 546 576T552 564V474ZM552 218Q552 210 546 206T532 202H113Q105 202 99 206T93 218V308Q93 316 99 320T113 324H532Q540 324 546 320T552 308V218Z"  />
<glyph unicode="&gt;" horiz-adv-x="645" d="M536 391Q536 380 531 372T515 355L283 148Q278 143 273 140T259 137H120Q108 137 108 150Q108 156 114 162L373 391L114 620Q108 626 108 632Q108 645 120 645H259Q267 645 272 642T283 634L515 427Q526 418 531 410T536 391Z"  />
<glyph unicode="?" horiz-adv-x="479" d="M431 580Q431 546 414 512T354 423L309 365Q292 343 281 329T264 306T256 289T253 274V246Q253 237 245 232T229 227H129Q121 227 116 233T110 247V274Q110 293 111 309T116 341T129 371T152 406L200 469Q228 506 237 527T246 570V580Q246 597 235 607T197 617Q158 617 124 614T54 606H51Q34 606 34 627V716Q34 727 37 733T52 742Q84 752 127 757T212 763Q264 763 304 755T373 727T416 676T431 597V580ZM262 19Q262 11 256 6T242 0H124Q116 0 110 5T104 19V145Q104 153 110 159T124 165H242Q250 165 256 159T262 145V19Z"  />
<glyph unicode="@" horiz-adv-x="774" d="M741 361Q741 271 714 211T637 114T520 62T370 46Q332 46 300 55T245 82T209 127T196 191Q196 196 196 200T197 209L206 325Q213 413 266 452T404 492Q436 492 470 488T537 477Q561 472 561 450V446L533 147Q569 153 593 171T632 217T653 281T660 361Q660 406 646 447T603 520T528 571T421 590Q289 590 216 527T132 344L117 184Q116 175 116 167T115 150Q115 106 130 70T176 8T254 -33T364 -48Q409 -48 447 -44T511 -40H512H516Q524 -40 524 -50V-89Q524 -101 512 -102Q486 -105 449 -108T364 -112Q292 -112 232 -95T127 -45T59 38T34 152V155Q34 162 34 169T35 184L51 349Q58 421 86 478T161 576T273 639T422 661Q503 661 562 636T662 569T721 473T741 361ZM442 392Q414 397 391 397Q355 397 340 381T320 321L309 210Q308 205 308 201T308 193Q308 164 323 153T377 141Q388 141 398 141T419 142L442 392Z"  />
<glyph unicode="A" horiz-adv-x="669" d="M650 16Q650 0 633 0H493Q485 0 480 5T473 18L437 182H232L196 18Q194 10 189 5T176 0H36Q19 0 19 16Q19 17 19 18T20 21L169 641Q178 677 195 699T234 732T283 748T335 752Q361 752 386 748T434 733T474 699T500 641L649 21Q649 19 649 18T650 16ZM348 595Q346 603 344 606T335 610Q324 610 321 595L260 319H409L348 595Z"  />
<glyph unicode="B" horiz-adv-x="669" d="M623 215Q623 149 598 106T531 37T431 1T308 -9Q283 -9 257 -8T207 -6T161 -2T125 3Q95 8 83 21T70 68V676Q70 710 82 723T123 741Q136 743 156 745T201 748T252 751T302 752Q373 752 431 742T530 707T595 643T618 543V525Q618 476 596 437T534 378Q574 358 598 320T623 230V215ZM453 532Q453 573 423 592T315 612Q309 612 299 612T277 612T255 612T239 611V438H351Q381 438 400 444T431 461T448 486T453 517V532ZM457 230Q457 266 434 292T351 319H239V132Q245 132 256 132T280 132T304 131T321 131Q398 131 427 154T457 219V230Z"  />
<glyph unicode="C" horiz-adv-x="561" d="M520 31Q520 20 515 16T498 8Q482 3 442 -3T349 -9Q292 -9 239 7T144 60T78 159T53 309V435Q53 524 78 585T144 683T238 736T349 752Q402 752 442 746T498 735Q509 732 514 728T520 713V616Q520 596 501 596H498Q469 598 431 601T350 604Q324 604 302 597T262 570T236 518T226 435V309Q226 259 235 227T262 175T301 148T350 140Q392 140 430 143T498 148H501Q520 148 520 128V31H520Z"  />
<glyph unicode="D" horiz-adv-x="682" d="M631 307Q631 228 609 169T546 70T446 11T312 -9Q281 -9 250 -8T190 -4T138 0T99 6Q85 8 78 16T70 41V702Q70 719 77 727T99 737Q114 740 137 742T189 747T249 750T312 752Q387 752 446 733T546 674T609 575T631 436V307ZM460 436Q460 487 450 520T420 572T373 599T312 607Q293 607 273 607T241 605V138Q252 137 272 137T312 136Q346 136 373 143T419 170T449 223T460 307V436Z"  />
<glyph unicode="E" horiz-adv-x="580" d="M524 25Q524 7 504 4Q478 0 435 -4T310 -9Q262 -9 218 -1T141 30T87 95T67 206V538Q67 606 87 648T140 713T218 744T311 752Q351 752 381 751T435 747T474 743T504 739Q524 736 524 719V626Q524 618 518 612T504 606H301Q266 606 252 592T237 538V447H496Q504 447 510 441T516 427V332Q516 324 510 318T496 312H237V206Q237 167 251 153T301 138H504Q512 138 518 132T524 118V25H524Z"  />
<glyph unicode="F" horiz-adv-x="581" d="M524 625Q524 617 518 611T504 605H301Q266 605 252 591T237 537V447H496Q504 447 510 441T516 427V332Q516 324 510 318T496 312H237V20Q237 12 231 6T217 0H87Q79 0 73 6T67 20V537Q67 605 87 647T140 712T218 743T311 751Q351 751 381 750T435 746T474 742T504 738Q524 735 524 718V625H524Z"  />
<glyph unicode="G" horiz-adv-x="645" d="M580 608Q580 600 576 598T565 595H562Q526 597 472 600T354 603Q324 603 300 595T258 568T232 515T223 433V308Q223 256 233 223T260 171T297 145T335 138Q376 138 412 141V371Q412 379 417 385T431 391H559Q567 391 573 385T579 371V35Q579 16 559 12Q518 4 464 -2T335 -9Q307 -9 275 -3T211 17T150 55T99 114T63 197T50 309V433Q50 529 77 590T147 688T245 738T354 752Q429 752 482 744T563 729Q580 726 580 714V608H580Z"  />
<glyph unicode="H" horiz-adv-x="729" d="M659 20Q659 12 653 6T639 0H508Q500 0 494 6T488 20V309H241V20Q241 12 235 6T221 0H90Q82 0 76 6T70 20V724Q70 732 76 737T90 743H221Q229 743 235 738T241 724V458H488V724Q488 732 494 737T508 743H639Q647 743 653 738T659 724V20H659Z"  />
<glyph unicode="I" horiz-adv-x="311" d="M241 20Q241 12 236 6T222 0H88Q80 0 75 6T70 20V724Q70 743 88 743H222Q241 743 241 724V20H241Z"  />
<glyph unicode="J" horiz-adv-x="311" d="M241 -6Q241 -57 227 -90T189 -143T133 -171T62 -179Q45 -179 32 -178T-2 -175Q-17 -173 -17 -158V-56Q-17 -51 -14 -47T-6 -42H44Q61 -42 65 -34T70 -6V724Q70 732 76 737T90 743H221Q229 743 235 738T241 724V-6H241Z"  />
<glyph unicode="K" horiz-adv-x="678" d="M652 732Q652 726 647 718L409 380L648 21Q652 16 652 10Q652 0 638 0H466Q457 0 453 4T444 14L241 344V20Q241 12 235 6T221 0H90Q82 0 76 6T70 20V724Q70 732 76 737T90 743H221Q229 743 235 738T241 724V406L461 731Q468 743 483 743H636Q652 743 652 732Z"  />
<glyph unicode="L" horiz-adv-x="519" d="M497 25Q497 8 477 4Q465 1 445 -1T403 -5T357 -8T314 -9Q266 -9 222 -1T144 30T90 95T70 206V723Q70 731 76 737T90 743H221Q229 743 235 737T241 723V206Q241 167 255 153T305 138H477Q485 138 491 132T497 118V25H497Z"  />
<glyph unicode="M" horiz-adv-x="816" d="M746 14Q746 6 741 3T729 0H597Q590 0 586 6T581 20V437Q581 445 576 445Q572 445 568 438L478 273Q468 256 448 256H368Q348 256 338 273L248 438Q244 445 240 445Q235 445 235 437V20Q235 12 231 6T219 0H87Q81 0 76 3T70 14V709Q70 725 80 734T106 743H200Q230 743 244 716L397 431Q403 418 408 418Q412 418 419 431L572 716Q586 743 616 743H710Q726 743 736 734T746 708V14H746Z"  />
<glyph unicode="N" horiz-adv-x="729" d="M659 38Q659 22 648 11T620 0H522Q506 0 494 5T470 31L242 425Q237 433 233 433Q228 433 228 425V20Q228 12 222 6T208 0H90Q82 0 76 6T70 20V705Q70 721 81 732T108 743H209Q224 743 233 736T251 712L488 300Q493 292 496 292Q501 292 501 301V724Q501 732 507 737T521 743H639Q647 743 653 738T659 724V38H659Z"  />
<glyph unicode="O" horiz-adv-x="698" d="M645 312Q645 225 622 164T559 65T465 9T349 -9Q287 -9 233 8T139 64T76 164T53 312V431Q53 518 76 579T139 678T233 734T349 752Q411 752 465 735T559 679T622 579T645 431V312ZM473 431Q473 522 443 562T349 602Q286 602 256 562T226 431V312Q226 221 256 181T349 141Q412 141 442 181T473 312V431Z"  />
<glyph unicode="P" horiz-adv-x="651" d="M618 502Q618 432 593 386T525 311T430 272T320 260Q302 260 280 261T239 263V20Q239 12 233 6T219 0H90Q82 0 76 5T70 19V691Q70 717 81 726T115 739Q153 745 208 748T318 752Q375 752 429 741T525 702T592 628T618 511V502ZM448 511Q448 565 416 587T320 610Q315 610 303 610T279 609T255 608T239 607V403Q243 403 254 403T279 402T304 401T320 401Q387 401 417 426T448 502V511Z"  />
<glyph unicode="Q" horiz-adv-x="698" d="M645 312Q645 240 629 186T585 93T517 32T430 -1V-21Q430 -37 437 -41T455 -46H545Q556 -46 562 -50T569 -62V-144Q569 -160 546 -166Q525 -171 495 -175T435 -179Q400 -179 370 -171T318 -145T282 -96T269 -22V-1Q222 9 183 32T114 93T69 185T53 312V431Q53 518 76 579T139 678T233 734T349 752Q411 752 465 735T559 679T622 579T645 431V312ZM473 431Q473 522 443 562T349 602Q286 602 256 562T226 431V312Q226 221 256 181T349 141Q412 141 442 181T473 312V431Z"  />
<glyph unicode="R" horiz-adv-x="680" d="M644 12Q644 0 629 0H476Q468 0 464 6T456 20L322 273L311 272Q295 272 275 273T240 274V20Q240 12 234 6T220 0H90Q82 0 76 6T70 20V691Q70 717 81 726T115 739Q132 742 156 744T207 748T262 751T318 752Q382 752 437 741T532 702T596 629T619 518V505Q619 425 582 376T490 305L641 23Q644 17 644 12ZM449 518Q449 564 415 585T318 607Q313 607 302 607T278 606T255 605T240 604V412Q244 412 254 412T275 411T297 410T311 410Q350 410 376 415T419 432T442 461T449 505V518Z"  />
<glyph unicode="S" horiz-adv-x="588" d="M546 210Q546 170 532 131T486 61T401 11T273 -9Q213 -9 168 -3T84 13Q76 15 70 20T64 33V131Q64 142 69 146T82 150H85Q100 148 126 146T181 143T234 140T275 138Q327 138 345 155T364 208Q364 230 351 245T298 284L160 366Q125 387 103 409T67 455T48 504T42 557Q42 598 54 633T97 695T176 737T298 752Q325 752 356 750T417 745T471 738T510 730Q516 728 520 724T525 712V611Q525 604 522 599T508 594H506Q495 595 471 596T415 600T352 603T294 605Q251 605 234 592T216 552Q216 541 219 533T229 518T250 502T283 482L411 413Q489 371 517 321T546 210Z"  />
<glyph unicode="T" horiz-adv-x="587" d="M562 621Q562 613 556 608T541 602H379V20Q379 12 373 6T359 0H228Q220 0 214 6T208 20V602H45Q37 602 31 607T25 621V724Q25 732 31 737T45 743H541Q549 743 555 738T562 724V621H562Z"  />
<glyph unicode="U" horiz-adv-x="711" d="M644 279Q644 193 621 138T559 50T468 4T355 -9Q295 -9 243 4T151 49T90 137T67 279V724Q67 732 73 737T87 743H218Q226 743 232 738T238 724V279Q238 241 243 214T262 169T298 143T355 134Q389 134 411 142T447 168T467 213T473 279V724Q473 732 479 737T493 743H623Q631 743 637 738T644 724V279H644Z"  />
<glyph unicode="V" horiz-adv-x="686" d="M658 727Q658 726 658 725T657 722L508 102Q499 66 482 44T443 11T395 -5T343 -9Q317 -9 291 -5T243 10T203 44T177 102L28 722Q28 724 28 724T27 727Q27 734 32 738T45 743H184Q192 743 197 738T204 725L329 148Q332 133 343 133Q354 133 357 148L482 725Q484 733 488 738T501 743H641Q658 743 658 727Z"  />
<glyph unicode="W" horiz-adv-x="889" d="M872 728L779 73Q773 29 750 13T687 -3H630Q597 -3 573 12T538 65L459 364Q457 370 456 371T450 372Q446 372 445 371T442 364L363 65Q353 27 329 12T271 -3H214Q174 -3 151 13T122 73L29 728V730Q29 738 34 740T45 743H181Q195 743 197 724L254 188Q255 175 260 175Q264 175 267 188L339 463Q347 492 364 501T401 511H500Q520 511 537 502T562 463L634 188Q637 175 641 175Q646 175 647 188L704 724Q706 743 720 743H856Q862 743 867 741T872 730V728Z"  />
<glyph unicode="X" horiz-adv-x="703" d="M671 10Q671 0 658 0H499Q489 0 484 3T473 15L343 226L226 20Q221 11 215 6T201 0H53Q38 0 38 13Q38 16 40 20L249 381L38 724Q36 728 36 730Q36 735 40 739T51 743H212Q220 743 226 737T237 724L361 522L473 724Q477 731 483 737T498 743H646Q652 743 656 739T661 730Q661 728 659 724L453 371L668 20Q671 14 671 10Z"  />
<glyph unicode="Y" horiz-adv-x="647" d="M626 728Q626 723 625 721L474 375Q459 340 443 323T409 298V20Q409 12 403 6T389 0H258Q250 0 244 6T238 20V298Q220 306 204 323T172 375L21 721Q20 723 20 728Q20 734 24 738T36 743H180Q188 743 193 738T200 726L308 444Q312 434 315 432T323 429Q328 429 331 431T338 444L446 726Q448 733 453 738T466 743H610Q618 743 622 739T626 728Z"  />
<glyph unicode="Z" horiz-adv-x="615" d="M565 20Q565 12 559 6T545 0H91Q74 0 62 7T50 31V111Q50 122 53 131T65 155L344 577Q348 582 348 587Q348 595 337 595H88Q80 595 74 600T68 614V724Q68 732 74 737T88 743H519Q535 743 547 736T559 715V708Q559 705 559 701T560 691Q560 680 560 669T559 647V624Q559 611 551 598L269 166Q264 159 264 155Q264 148 275 148H545Q553 148 559 143T565 130V20H565Z"  />
<glyph unicode="[" horiz-adv-x="374" d="M344 -174Q344 -182 338 -188T324 -194H80Q72 -194 68 -189T63 -175V724Q63 732 67 737T80 743H323Q331 743 337 737T343 723V636Q343 628 337 622T323 616H227V-67H324Q332 -67 338 -73T344 -87V-174H344Z"  />
<glyph unicode="\" horiz-adv-x="405" d="M392 12Q392 5 387 0T373 -5H246Q238 -5 234 1T227 16L14 723Q14 724 14 725T13 727Q13 734 18 738T32 743H158Q166 743 171 737T179 723L391 16Q391 15 391 14T392 12Z"  />
<glyph unicode="]" horiz-adv-x="374" d="M311 -175Q311 -183 307 -188T294 -194H50Q42 -194 36 -188T30 -174V-87Q30 -79 36 -73T50 -67H147V616H51Q43 616 37 622T31 636V723Q31 731 37 737T51 743H294Q302 743 306 738T311 724V-175H311Z"  />
<glyph unicode="^" horiz-adv-x="645" d="M576 574Q576 565 564 565H434Q421 565 416 568T403 580L323 669L243 580Q235 572 230 569T212 565H82Q70 565 70 574Q70 579 75 586L186 734Q194 745 200 748T220 752H426Q440 752 446 749T460 734L571 586Q576 579 576 574Z"  />
<glyph unicode="_" horiz-adv-x="541" d="M573 -103Q573 -111 567 -115T553 -119H-11Q-19 -119 -25 -115T-31 -103V-55Q-31 -47 -25 -43T-11 -39H553Q561 -39 567 -43T573 -55V-103H573Z"  />
<glyph unicode="`" horiz-adv-x="443" d="M293 637Q293 630 284 630H177Q167 630 163 633T153 642L31 764Q27 768 27 772Q27 779 38 779H170Q181 779 185 776T197 764L289 647Q293 642 293 637Z"  />
<glyph unicode="a" horiz-adv-x="562" d="M502 20Q502 12 496 6T482 0H370Q362 0 356 6T350 20V36Q321 15 289 3T211 -9Q178 -9 148 -1T93 28T55 81T40 163V172Q40 260 98 300T286 341H340V377Q340 420 320 433T265 446Q241 446 217 446T170 444T129 442T99 439H94Q86 439 81 443T76 457V538Q76 555 95 560Q123 567 170 574T268 581Q322 581 365 570T439 534T485 471T502 377V20ZM343 245H286Q260 245 243 241T216 227T202 204T198 172V163Q198 131 213 122T261 113Q284 113 304 119T343 135V245Z"  />
<glyph unicode="b" horiz-adv-x="597" d="M555 247Q555 125 491 58T304 -9Q246 -9 190 -2T91 17Q71 22 66 28T60 46V747Q60 755 66 761T81 767H202Q210 767 216 761T222 747V574Q244 577 266 579T304 581Q431 581 493 512T555 325V247ZM393 325Q393 351 389 373T375 412T348 438T304 447Q286 447 263 446T222 442V130Q236 128 257 126T304 124Q331 124 348 133T375 158T389 197T393 247V325Z"  />
<glyph unicode="c" horiz-adv-x="474" d="M432 29Q432 18 427 14T411 6Q390 1 357 -4T278 -9Q172 -9 109 56T45 244V328Q45 451 108 516T278 581Q323 581 356 576T411 566Q422 563 427 559T432 543V454Q432 446 427 442T413 437H411Q383 440 358 442T289 444Q272 444 257 439T231 420T214 384T207 328V244Q207 211 213 189T231 153T257 134T289 128Q332 128 357 130T411 135H413Q421 135 426 131T432 118V29H432Z"  />
<glyph unicode="d" horiz-adv-x="597" d="M537 46Q537 34 532 28T506 17Q463 6 407 -1T293 -9Q171 -9 107 58T42 247V325Q42 443 104 512T293 581Q308 581 330 579T375 574V747Q375 755 381 761T395 767H516Q524 767 530 761T537 747V46ZM375 442Q357 444 334 445T293 447Q266 447 249 438T222 413T208 374T204 325V247Q204 220 208 198T222 159T249 133T293 124Q318 124 339 126T375 130V442Z"  />
<glyph unicode="e" horiz-adv-x="590" d="M545 260Q545 236 524 236H205V234Q205 213 210 193T227 158T258 134T308 125Q332 125 359 126T412 128T462 130T500 134H503Q522 134 522 118V42Q522 30 518 24T501 15Q453 3 407 -3T296 -9Q251 -9 206 4T125 47T67 126T45 248V318Q45 378 62 427T111 510T191 562T298 581Q359 581 405 561T483 506T529 423T545 318V260ZM387 340Q387 396 363 423T297 451Q255 451 230 423T205 340V336H387V340Z"  />
<glyph unicode="f" horiz-adv-x="424" d="M394 670Q394 653 373 653H324Q301 653 296 645T291 606V573H373Q381 573 387 567T393 553V472Q393 464 387 458T373 452H291V20Q291 12 285 6T271 0H148Q140 0 134 6T128 20V452L48 465Q40 467 34 472T27 486V552Q27 560 33 566T48 573H128V605Q128 658 139 691T171 743T223 769T296 776Q318 776 335 774T375 768Q394 765 394 748V670H394Z"  />
<glyph unicode="g" horiz-adv-x="599" d="M577 490Q577 479 573 475T559 468L528 458Q537 444 543 423T550 384V376Q550 278 486 234T303 189Q268 189 241 193T199 204Q191 199 188 194T185 181Q185 169 191 163T215 153L328 128Q393 114 438 101T510 70T550 28T562 -33V-41Q562 -204 300 -204Q175 -204 111 -162T46 -41V-33Q46 -2 60 26T106 79Q79 94 67 120T55 172Q55 200 67 221T99 257Q75 278 64 312T53 376V384Q53 469 112 521T303 573H552Q563 573 570 566T577 547V490ZM392 384Q392 415 374 435T303 456Q250 456 231 436T212 384V376Q212 363 215 351T229 328T256 312T303 306Q356 306 374 325T392 376V384ZM397 -33Q397 -26 394 -20T379 -7T348 5T294 19L220 35Q211 22 206 8T200 -33V-41Q200 -67 221 -79T300 -92Q331 -92 350 -89T379 -78T393 -62T397 -41V-33Z"  />
<glyph unicode="h" horiz-adv-x="612" d="M552 21Q552 13 546 7T531 0H410Q402 0 396 6T390 21V354Q390 380 387 398T376 427T354 442T316 447Q294 447 271 438T222 415V21Q222 13 216 7T202 0H81Q73 0 67 6T60 21V747Q60 755 66 761T80 767H202Q210 767 216 761T222 747V536Q260 561 295 571T375 581Q429 581 463 563T517 515T544 443T552 354V21H552Z"  />
<glyph unicode="i" horiz-adv-x="290" d="M230 658Q230 650 224 644T210 638H80Q72 638 66 644T60 658V751Q60 759 66 765T80 771H210Q218 771 224 765T230 751V658ZM226 20Q226 12 220 6T206 0H84Q76 0 70 6T64 20V553Q64 561 70 567T84 573H206Q214 573 220 567T226 553V20Z"  />
<glyph unicode="j" horiz-adv-x="290" d="M230 658Q230 650 224 644T209 638H80Q72 638 66 644T60 658V751Q60 759 66 765T80 771H209Q217 771 223 765T230 751V658ZM226 -32Q226 -82 215 -115T184 -167T134 -195T68 -203Q29 -203 -12 -196Q-32 -193 -32 -176V-97Q-32 -79 -11 -79H33Q54 -79 59 -69T64 -32V552Q64 560 69 566T83 573H207Q215 573 220 567T226 552V-32Z"  />
<glyph unicode="k" horiz-adv-x="588" d="M558 562Q558 557 554 552L368 299L553 21Q555 19 555 13Q555 0 542 0H391Q383 0 378 2T366 14L222 249V21Q222 13 216 7T202 0H81Q73 0 67 6T60 21V747Q60 755 66 761T81 767H202Q210 767 216 761T222 747V329L374 558Q380 567 387 570T400 573H543Q558 573 558 562Z"  />
<glyph unicode="l" horiz-adv-x="282" d="M222 21Q222 13 217 7T203 0H81Q73 0 67 6T60 21V747Q60 755 66 761T81 767H203Q211 767 216 761T222 747V21H222Z"  />
<glyph unicode="m" horiz-adv-x="875" d="M815 21Q815 13 809 7T794 0H673Q665 0 659 6T653 21V362Q653 410 640 427T592 445Q579 445 559 442T515 427Q518 397 518 362V21Q518 13 512 7T498 0H377Q369 0 363 6T356 21V362Q356 410 345 427T298 445Q284 445 265 438T222 419V21Q222 13 216 7T202 0H81Q73 0 67 6T60 21V553Q60 561 66 567T80 573H194Q202 573 208 567T214 553V531Q246 552 282 566T362 581Q402 581 430 570T480 532Q502 544 521 553T559 569T598 578T643 581Q692 581 725 565T778 521T806 452T815 362V21H815Z"  />
<glyph unicode="n" horiz-adv-x="612" d="M552 21Q552 13 546 7T531 0H410Q402 0 396 6T390 21V354Q390 380 387 398T376 427T354 442T316 447Q294 447 271 438T222 415V21Q222 13 216 7T202 0H81Q73 0 67 6T60 21V553Q60 561 66 567T80 573H192Q200 573 206 567T212 553V529Q253 558 290 569T375 581Q429 581 463 563T517 515T544 443T552 354V21H552Z"  />
<glyph unicode="o" horiz-adv-x="589" d="M545 251Q545 191 529 143T481 62T403 10T295 -9Q234 -9 188 9T109 61T61 143T44 251V321Q44 381 60 429T109 510T187 562T295 581Q356 581 402 563T480 511T528 429T545 321V251ZM384 321Q384 443 295 443Q251 443 228 413T205 321V251Q205 190 228 159T295 128Q384 128 384 251V321Z"  />
<glyph unicode="p" horiz-adv-x="597" d="M555 247Q555 129 493 60T304 -9Q289 -9 267 -7T222 -2V-175Q222 -183 216 -189T202 -195H81Q73 -195 67 -189T60 -175V526Q60 538 65 544T91 555Q134 566 190 573T304 581Q426 581 490 514T555 325V247ZM393 325Q393 352 389 374T375 412T348 438T304 447Q279 447 258 446T222 442V130Q240 128 263 126T304 124Q331 124 348 133T375 159T389 198T393 247V325Z"  />
<glyph unicode="q" horiz-adv-x="597" d="M537 -175Q537 -183 531 -189T516 -195H395Q387 -195 381 -189T375 -175V-2Q353 -5 331 -7T293 -9Q166 -9 104 60T42 247V325Q42 447 106 514T293 581Q351 581 407 574T506 555Q526 550 531 544T537 526V-175ZM375 442Q361 444 340 445T293 447Q266 447 249 438T222 413T208 374T204 325V247Q204 221 208 199T222 160T249 134T293 124Q311 124 334 126T375 130V442Z"  />
<glyph unicode="r" horiz-adv-x="396" d="M374 466Q374 459 370 453T359 447H351Q314 447 282 437T222 412V21Q222 13 216 7T202 0H81Q73 0 67 6T60 21V553Q60 561 66 567T80 573H199Q207 573 213 567T219 553V533Q247 556 282 568T354 581Q362 581 368 575T374 561V466H374Z"  />
<glyph unicode="s" horiz-adv-x="503" d="M461 159Q461 124 448 93T409 40T342 4T247 -9Q226 -9 203 -8T155 -3T107 4T65 13Q46 18 46 36V117Q46 125 51 130T65 136H69Q89 133 113 131T162 126T206 123T239 122Q275 122 286 131T298 161Q298 172 290 181T261 203L131 278Q89 302 66 339T42 426Q42 502 92 541T247 581Q306 581 346 575T425 558Q444 553 444 535V454Q444 435 427 435H424Q413 436 393 438T350 443T302 446T258 448Q229 448 217 442T205 419Q205 408 213 401T236 384L360 313Q391 295 410 277T441 239T457 199T461 159Z"  />
<glyph unicode="t" horiz-adv-x="421" d="M390 19Q390 2 371 -1Q348 -5 331 -7T292 -9Q251 -9 220 -3T167 23T135 75T124 162V452L44 465Q36 467 30 472T23 486V552Q23 560 29 566T44 573H124V655Q124 663 130 668T144 675L266 696H269Q277 696 282 692T287 679V573H369Q377 573 383 567T389 553V472Q389 464 383 458T369 452H287V161Q287 131 292 123T320 114H369Q390 114 390 97V19H390Z"  />
<glyph unicode="u" horiz-adv-x="612" d="M552 20Q552 12 546 6T532 0H420Q412 0 406 6T400 20V44Q359 15 322 4T237 -8Q183 -8 149 9T95 58T68 130T60 219V552Q60 560 66 566T81 573H202Q210 573 216 567T222 552V219Q222 193 225 175T236 146T258 131T296 126Q318 126 341 135T390 158V552Q390 560 396 566T410 573H531Q539 573 545 567T552 552V20H552Z"  />
<glyph unicode="v" horiz-adv-x="585" d="M564 556Q564 552 563 550L437 96Q428 63 413 42T378 10T336 -5T292 -9Q270 -9 248 -5T207 10T173 42T148 96L23 550Q22 552 22 556Q22 573 38 573H170Q178 573 183 567T191 552L277 160Q281 139 292 139Q304 139 308 160L394 552Q396 561 401 567T415 573H547Q554 573 559 569T564 556Z"  />
<glyph unicode="w" horiz-adv-x="845" d="M816 552L727 70Q719 27 695 14T639 0H578Q542 0 522 17T494 64L427 325Q426 330 422 330Q418 330 417 325L350 64Q342 35 322 18T266 0H205Q189 0 175 3T150 13T130 35T117 70L28 552V556Q28 563 32 568T43 573H164Q173 573 178 570T185 556L244 176Q246 163 250 163Q255 163 258 176L325 440Q332 466 344 475T381 485H463Q487 485 499 476T519 440L586 176Q589 163 594 163Q598 163 600 176L659 556Q661 567 666 570T680 573H801Q808 573 812 568T816 556V552Z"  />
<glyph unicode="x" horiz-adv-x="617" d="M585 14Q585 9 581 5T571 0H420Q412 0 407 5T394 21L295 176L202 20Q195 9 190 5T176 0H42Q31 0 31 12Q31 17 33 20L208 298L38 552Q36 556 36 558Q36 564 40 568T51 573H200Q208 573 213 568T226 552L315 414L397 552Q404 563 409 568T423 573H557Q569 573 569 560Q569 555 567 552L402 290L583 21Q585 17 585 14Z"  />
<glyph unicode="y" horiz-adv-x="592" d="M570 555Q570 553 570 553T569 550L401 -39Q389 -80 374 -110T335 -161T274 -191T182 -202Q168 -202 151 -201T117 -197T85 -192T61 -186Q53 -183 47 -180T40 -168V-87Q40 -79 46 -74T60 -68H62Q74 -69 90 -70T124 -72T158 -75T187 -76Q214 -76 229 -65T253 -24L262 7H247Q233 7 221 9T196 21T174 48T154 100L22 550Q21 553 21 557Q21 573 41 573H174Q182 573 186 568T193 554L283 178Q287 159 295 159H296H300H304L397 554Q399 562 404 567T418 573H551Q559 573 564 568T570 555Z"  />
<glyph unicode="z" horiz-adv-x="515" d="M472 20Q472 12 466 6T452 0H77Q63 0 53 9T43 33V97Q43 108 46 116T57 135L274 431Q277 435 277 438Q277 443 270 443H69Q52 443 52 459V553Q52 561 58 567T72 573H437Q451 573 460 563T470 539V465Q470 457 468 449T459 430L252 147Q249 142 249 140Q249 136 256 136H454Q462 136 467 132T472 120V20H472Z"  />
<glyph unicode="{" horiz-adv-x="407" d="M377 -174Q377 -182 371 -188T357 -194H299Q243 -194 205 -185T142 -155T108 -99T97 -9V122Q97 158 83 182T40 225V320Q68 338 82 362T96 423V558Q96 612 106 647T141 704T203 734T298 743H356Q364 743 370 737T376 723V636Q376 628 370 622T356 616H298Q274 616 267 606T260 558V423Q260 371 241 334T177 273Q222 250 241 212T260 122V-9Q260 -46 267 -56T299 -67H357Q365 -67 371 -73T377 -87V-174H377Z"  />
<glyph unicode="|" horiz-adv-x="290" d="M227 -173Q227 -181 221 -187T207 -194H84Q76 -194 70 -188T63 -173V723Q63 731 69 737T84 743H207Q215 743 221 737T227 723V-173H227Z"  />
<glyph unicode="}" horiz-adv-x="407" d="M367 225Q339 207 325 183T310 122V-9Q310 -63 299 -98T264 -155T202 -185T108 -194H50Q42 -194 36 -188T30 -174V-87Q30 -79 36 -73T50 -67H108Q132 -67 139 -57T147 -9V122Q147 174 166 212T230 273Q185 296 166 333T147 423V558Q147 595 140 605T109 616H51Q43 616 37 622T31 636V723Q31 731 37 737T51 743H109Q164 743 202 734T265 704T300 648T311 558V423Q311 387 325 363T367 320V225H367Z"  />
<glyph unicode="~" horiz-adv-x="645" d="M576 480Q576 401 541 365T433 329Q404 329 382 338T342 358L271 401Q257 409 247 411T228 414Q207 414 202 402T197 374V356Q197 348 192 342T179 336H90Q70 336 70 356V374Q70 419 80 449T109 498T154 524T213 532Q227 532 249 528T286 515L376 461Q390 453 400 450T419 447Q435 447 441 454T448 480V505Q448 525 467 525H556Q576 525 576 505V480H576Z"  />
<glyph unicode="&#xA0;" horiz-adv-x="260" />
<glyph unicode="&#xA1;" horiz-adv-x="273" d="M215 427Q215 419 209 414T195 408H77Q58 408 58 427V553Q58 561 63 567T77 573H195Q203 573 209 567T215 553V427ZM220 -175Q220 -183 213 -188T198 -194H73Q65 -194 59 -189T53 -175V-174L73 325Q74 333 79 339T93 346H178Q186 346 193 340T200 325L220 -174V-175Z"  />
<glyph unicode="&#xA2;" horiz-adv-x="645" d="M516 29Q516 18 511 14T495 6Q481 2 462 -1T416 -7V-80Q416 -88 410 -94T396 -100H295Q287 -100 281 -94T275 -80V4Q206 27 168 88T129 244V328Q129 423 167 484T275 568V650Q275 658 281 664T295 670H396Q404 670 410 664T416 650V579Q442 577 461 574T495 566Q506 563 511 559T516 543V454Q516 446 511 442T497 437H495Q467 440 442 442T373 444Q356 444 341 439T315 420T298 384T291 328V244Q291 211 297 189T315 153T341 134T373 128Q416 128 441 130T495 135H497Q505 135 510 131T516 118V29H516Z"  />
<glyph unicode="&#xA3;" horiz-adv-x="645" d="M577 614Q577 596 561 596H558Q526 600 480 604T393 608Q344 608 323 593T302 529V445H471Q479 445 485 440T491 426V329Q491 310 472 310H302V210Q302 185 296 167T282 134H556Q564 134 570 129T576 116V19Q576 11 570 6T556 0H114Q103 0 99 8T95 24V94Q95 103 98 108T104 118Q115 132 126 158T137 210V310H87Q68 310 68 329V426Q68 434 74 439T88 445H137V528Q137 586 151 628T195 698T274 739T393 752Q414 752 438 750T485 745T527 739T558 733Q572 730 574 726T577 713V614H577Z"  />
<glyph unicode="&#xA4;" horiz-adv-x="645" d="M583 557Q583 549 576 542L490 457Q513 416 513 371Q513 323 489 281L573 197Q580 190 580 182Q580 176 575 171L518 114Q513 109 507 109Q499 109 492 116L406 203Q368 182 324 182Q278 182 238 204L153 119Q150 116 146 114T137 111Q132 111 127 116L70 173Q65 178 65 185Q65 193 72 200L157 284Q134 325 134 371Q134 392 138 413T154 453L69 539Q62 546 62 554Q62 560 67 565L124 622Q129 627 135 627Q143 627 150 620L233 537Q254 549 277 554T324 560Q370 560 410 538L495 623Q502 630 510 630Q516 630 521 625L578 568Q583 563 583 557ZM410 374Q410 409 386 433T326 457Q291 457 266 433T241 374Q241 339 266 315T326 290Q361 290 385 314T410 374Z"  />
<glyph unicode="&#xA5;" horiz-adv-x="645" d="M623 730Q623 724 621 721L510 497H597Q605 497 611 492T617 478V404Q617 385 598 385H456L410 293L408 282H597Q605 282 611 277T617 264V189Q617 171 598 171H408V20Q408 12 402 6T388 0H255Q247 0 242 6T236 20V171H47Q39 171 33 176T27 189V264Q27 272 33 277T47 282H236L235 293L190 385H47Q39 385 33 390T27 404V478Q27 486 33 491T47 497H135L24 721Q22 724 22 730Q22 743 37 743H184Q192 743 196 738T203 726L322 456L442 726Q445 733 449 738T461 743H608Q623 743 623 730Z"  />
<glyph unicode="&#xA6;" horiz-adv-x="290" d="M227 363Q227 355 221 349T207 342H84Q76 342 70 348T63 363V708Q63 716 69 722T84 728H207Q215 728 221 722T227 708V363ZM227 -190Q227 -198 221 -204T207 -211H84Q76 -211 70 -205T63 -190V155Q63 163 69 169T84 175H207Q215 175 221 169T227 155V-190Z"  />
<glyph unicode="&#xA7;" horiz-adv-x="589" d="M549 1Q549 -38 535 -77T490 -146T406 -196T277 -216Q217 -216 169 -210T82 -194Q74 -192 68 -187T62 -174V-73Q62 -65 68 -60T82 -54H84Q132 -59 177 -63T271 -68H277Q329 -67 350 -52T371 1Q371 23 356 38T300 76L167 149Q128 170 104 192T65 239T46 292T40 354Q40 364 42 377T49 405T58 433T70 457Q58 471 50 497T41 552Q41 593 53 629T95 693T174 736T296 752Q323 752 354 750T415 745T469 738T508 730Q516 728 522 724T528 711V609Q528 595 515 595H514Q460 598 406 600T296 603Q251 603 232 594T213 552Q213 533 228 519T285 482L413 413Q491 371 520 323T549 213Q549 185 541 156T523 107Q537 84 543 57T549 1ZM407 220Q407 236 403 248T388 273T359 297T311 325L239 364Q220 375 209 382T190 395Q181 386 177 373T173 344Q173 330 176 319T188 298T214 277T259 251L329 214Q351 203 369 190T395 170Q407 191 407 220Z"  />
<glyph unicode="&#xA8;" horiz-adv-x="443" d="M399 658Q399 650 392 644T377 638H283Q275 638 269 644T262 658V751Q262 759 268 765T283 771H377Q385 771 392 765T399 751V658ZM182 658Q182 650 176 644T161 638H67Q59 638 52 644T45 658V751Q45 759 52 765T67 771H161Q169 771 175 765T182 751V658Z"  />
<glyph unicode="&#xA9;" horiz-adv-x="750" d="M708 374Q708 305 682 245T610 139T504 68T374 42Q305 42 245 68T139 139T68 244T42 374Q42 443 68 504T139 610T244 682T374 709Q443 709 504 683T610 611T681 504T708 374ZM656 374Q656 432 634 483T573 573T484 634T374 657Q316 657 265 635T176 574T115 484T93 374Q93 316 115 265T175 176T265 116T374 94Q432 94 483 116T573 176T633 265T656 374ZM477 183Q477 172 464 169Q451 165 431 163T382 160Q301 160 257 206T212 349V405Q212 503 256 548T382 594Q411 594 431 591T464 584Q471 582 474 580T477 572V509Q477 497 465 497H463Q446 499 429 500T382 502Q369 502 357 498T336 483T321 454T315 405V349Q315 319 320 300T335 270T357 255T382 251Q408 251 427 252T463 256H466Q477 256 477 245V183Z"  />
<glyph unicode="&#xAA;" horiz-adv-x="357" d="M320 418Q320 404 312 402Q281 394 249 390T184 386Q106 386 70 413T33 497V504Q33 559 76 581T192 603H214V616Q214 643 206 652T172 661Q163 661 149 661T121 659T93 658T72 656H71Q58 656 58 670V720Q58 731 72 735Q87 740 115 745T172 750Q205 750 232 744T278 722T309 680T320 616V418ZM214 544H192Q163 544 149 535T134 504V497Q134 476 146 469T184 461Q194 461 201 462T214 464V544Z"  />
<glyph unicode="&#xAB;" horiz-adv-x="718" d="M685 74Q685 63 671 63H549Q538 63 532 65T520 75L360 260Q355 266 353 273T350 286Q350 292 352 299T360 312L520 497Q526 504 532 506T549 509H671Q685 509 685 498Q685 495 681 489L505 286L681 83Q685 77 685 74ZM380 74Q380 63 366 63H245Q234 63 228 65T215 75L55 260Q50 266 48 273T45 286Q45 292 47 299T55 312L215 497Q221 504 227 506T245 509H366Q380 509 380 498Q380 495 376 489L200 286L376 83Q380 77 380 74Z"  />
<glyph unicode="&#xAC;" horiz-adv-x="645" d="M552 198Q552 190 547 184T533 178H448Q440 178 435 184T430 198V459H113Q105 459 99 463T93 475V564Q93 572 99 576T113 580H533Q552 580 552 564V198H552Z"  />
<glyph unicode="&#xAD;" horiz-adv-x="302" d="M268 264Q268 256 262 251T248 246H54Q46 246 40 251T34 264V344Q34 352 40 357T54 363H248Q256 363 262 358T268 344V264H268Z"  />
<glyph unicode="&#xAE;" horiz-adv-x="598" d="M579 484Q579 426 557 376T497 287T408 227T299 205Q241 205 191 227T102 287T42 375T20 484Q20 542 42 592T102 681T190 741T299 763Q357 763 408 741T497 681T557 593T579 484ZM528 484Q528 531 510 573T461 646T388 695T299 713Q252 713 211 695T138 646T89 573T71 484Q71 437 89 395T138 322T210 273T299 255Q346 255 388 273T461 322T510 395T528 484ZM437 330Q437 320 427 320H360Q354 320 350 328L287 439Q285 439 283 442T279 445H253V331Q253 320 242 320H182Q171 320 171 331V625Q171 641 176 647T196 655Q202 656 212 656T236 658T262 659T285 660Q351 660 388 637T425 552V545Q425 510 409 490T366 458L435 337Q437 333 437 330ZM346 552Q346 572 334 581T292 591H251V506Q253 506 259 506T272 506T284 505T292 505Q321 505 333 515T346 545V552Z"  />
<glyph unicode="&#xAF;" horiz-adv-x="443" d="M404 672Q404 664 398 659T384 653H60Q52 653 46 658T40 672V744Q40 752 46 757T60 763H384Q392 763 398 758T404 744V672H404Z"  />
<glyph unicode="&#xB0;" horiz-adv-x="361" d="M334 598Q334 566 322 538T290 489T241 456T181 444Q149 444 121 456T72 489T39 538T27 598Q27 630 39 658T72 707T121 740T181 752Q213 752 241 740T289 707T322 658T334 598ZM253 598Q253 628 232 649T181 671Q152 671 131 650T109 598Q109 569 130 548T181 526Q211 526 232 547T253 598Z"  />
<glyph unicode="&#xB1;" horiz-adv-x="645" d="M558 346Q558 338 552 334T538 330H383V176Q383 168 379 162T367 156H277Q269 156 265 162T261 176V330H107Q99 330 93 334T87 346V436Q87 444 93 448T107 452H261V607Q261 615 265 621T277 627H367Q375 627 379 621T383 607V452H538Q546 452 552 448T558 436V346ZM558 -4Q558 -12 552 -16T538 -20H107Q99 -20 93 -16T87 -4V67Q87 75 93 79T107 83H538Q546 83 552 79T558 67V-4Z"  />
<glyph unicode="&#xB2;" horiz-adv-x="355" d="M164 585Q180 597 190 604T206 616T214 627T216 642Q216 656 206 662T165 668Q141 668 113 666T59 661Q51 661 47 666T42 678V720Q42 727 46 731T56 737Q79 744 111 749T173 754Q251 754 284 727T318 645Q318 610 301 585T252 538L207 507Q172 483 153 466T131 423H296Q303 423 308 420T313 408V352Q313 345 308 340T296 335H55Q48 335 43 340T38 352V407Q38 454 60 490T114 549L164 585Z"  />
<glyph unicode="&#xB3;" horiz-adv-x="355" d="M315 456Q315 390 275 360T168 330Q136 330 106 334T54 345Q48 347 44 350T39 362V405Q39 421 56 421Q85 419 116 418T164 416Q190 416 200 426T211 456V466Q211 481 204 493T174 506H79Q71 506 67 511T63 523V569Q63 585 79 585H172Q195 585 203 597T211 626V634Q211 649 202 658T164 668Q147 668 120 667T67 662Q57 660 49 661T41 677V720Q41 728 45 731T56 737Q77 743 106 748T168 754Q237 754 276 727T315 637V629Q315 606 304 583T272 546Q293 533 304 512T315 466V456H315Z"  />
<glyph unicode="&#xB4;" horiz-adv-x="443" d="M416 772Q416 768 412 764L290 642Q284 636 280 633T266 630H159Q150 630 150 637Q150 642 154 647L247 764Q254 772 258 775T274 779H405Q416 779 416 772Z"  />
<glyph unicode="&#xB5;" horiz-adv-x="612" d="M552 49Q552 38 546 31T521 18Q487 7 434 -1T310 -9Q260 -9 221 0V-171Q221 -179 215 -185T201 -191H79Q71 -191 65 -185T59 -171V551Q59 559 65 566T80 573H201Q209 573 215 566T222 551V219Q222 167 242 146T310 124Q334 124 354 125T390 131V551Q390 559 396 566T410 573H531Q539 573 545 566T552 551V49H552Z"  />
<glyph unicode="&#xB6;" horiz-adv-x="659" d="M602 -176Q602 -184 598 -189T585 -195H542Q534 -195 530 -190T525 -176V667H462V-176Q462 -184 458 -189T445 -195H402Q394 -195 390 -190T385 -176V242H289Q237 242 193 256T115 299T64 369T45 465V520Q45 574 63 615T115 685T192 728T289 743H586Q602 743 602 724V-176H602Z"  />
<glyph unicode="&#xB7;" horiz-adv-x="274" d="M216 319Q216 311 210 305T196 299H79Q71 299 65 305T58 319V445Q58 453 64 458T79 464H196Q204 464 210 459T216 445V319H216Z"  />
<glyph unicode="&#xB8;" horiz-adv-x="426" d="M324 -45Q324 -49 320 -53L193 -183Q187 -189 183 -192T169 -195H62Q53 -195 53 -188Q53 -183 57 -178L154 -53Q161 -45 165 -42T181 -38H313Q324 -38 324 -45Z"  />
<glyph unicode="&#xB9;" horiz-adv-x="241" d="M114 746Q120 749 128 749H177Q187 749 189 744T192 732V352Q192 335 177 335H106Q99 335 94 338T89 352V642L36 619Q16 612 16 631V693Q16 702 26 706L114 746Z"  />
<glyph unicode="&#xBA;" horiz-adv-x="380" d="M347 551Q347 467 307 427T191 386Q116 386 75 426T34 551V584Q34 668 75 709T191 750Q266 750 306 709T347 584V551ZM240 584Q240 626 229 643T191 660Q165 660 153 643T140 584V551Q140 509 152 492T191 475Q217 475 228 492T240 551V584Z"  />
<glyph unicode="&#xBB;" horiz-adv-x="718" d="M683 286Q683 273 672 260L512 75Q506 68 500 66T483 63H362Q348 63 348 74Q348 77 352 83L528 286L352 489Q348 495 348 498Q348 509 362 509H483Q494 509 500 507T512 497L672 312Q683 299 683 286ZM378 286Q378 280 376 273T368 260L208 75Q202 68 196 66T178 63H57Q43 63 43 74Q43 77 47 83L223 286L47 489Q43 495 43 498Q43 509 57 509H178Q189 509 195 507T208 497L368 312Q373 306 375 299T378 286Z"  />
<glyph unicode="&#xBC;" horiz-adv-x="772" d="M128 746Q134 749 142 749H191Q201 749 203 744T206 732V352Q206 335 191 335H120Q113 335 108 338T103 352V642L50 619Q30 612 30 631V693Q30 702 40 706L128 746ZM636 735Q636 728 632 723L216 21Q210 10 206 5T193 0H90Q79 0 79 11Q79 15 82 21L498 723Q505 734 510 738T523 743H626Q636 743 636 735ZM742 107Q742 100 737 95T726 90H696V17Q696 10 692 5T680 0H608Q600 0 596 5T592 17V90H441Q435 90 430 95T425 107V159Q425 169 432 180L603 404Q611 414 621 414H679Q686 414 691 409T696 397V173H726Q732 173 737 169T742 156V107ZM595 276L519 173H595V276Z"  />
<glyph unicode="&#xBD;" horiz-adv-x="804" d="M128 746Q134 749 142 749H191Q201 749 203 744T206 732V352Q206 335 191 335H120Q113 335 108 338T103 352V642L50 619Q30 612 30 631V693Q30 702 40 706L128 746ZM636 735Q636 728 632 723L216 21Q210 10 206 5T193 0H90Q79 0 79 11Q79 15 82 21L498 723Q505 734 510 738T523 743H626Q636 743 636 735ZM620 250Q636 262 646 269T662 281T670 292T672 307Q672 321 662 327T621 333Q597 333 569 331T515 326Q507 326 503 331T498 343V385Q498 392 502 396T512 402Q535 409 567 414T629 419Q707 419 740 392T774 310Q774 275 757 250T708 203L663 172Q628 148 609 131T587 88H752Q759 88 764 85T769 73V17Q769 10 764 5T752 0H511Q504 0 499 5T494 17V72Q494 119 516 155T570 214L620 250Z"  />
<glyph unicode="&#xBE;" horiz-adv-x="835" d="M699 735Q699 728 695 723L279 21Q273 10 269 5T256 0H153Q142 0 142 11Q142 15 145 21L561 723Q568 734 573 738T586 743H689Q699 743 699 735ZM805 107Q805 100 800 95T789 90H759V17Q759 10 755 5T743 0H671Q663 0 659 5T655 17V90H504Q498 90 493 95T488 107V159Q488 169 495 180L666 404Q674 414 684 414H742Q749 414 754 409T759 397V173H789Q795 173 800 169T805 156V107ZM658 276L582 173H658V276ZM306 456Q306 390 266 360T159 330Q127 330 97 334T45 345Q39 347 35 350T30 362V405Q30 421 47 421Q76 419 107 418T155 416Q181 416 191 426T202 456V466Q202 481 195 493T165 506H70Q62 506 58 511T54 523V569Q54 585 70 585H163Q186 585 194 597T202 626V634Q202 649 193 658T155 668Q138 668 111 667T58 662Q48 660 40 661T32 677V720Q32 728 36 731T47 737Q68 743 97 748T159 754Q228 754 267 727T306 637V629Q306 606 295 583T263 546Q284 533 295 512T306 466V456Z"  />
<glyph unicode="&#xBF;" horiz-adv-x="479" d="M375 428Q375 420 369 414T355 408H237Q229 408 223 414T217 428V554Q217 562 223 567T237 573H355Q363 573 369 568T375 554V428ZM445 -143Q445 -154 442 -160T427 -169Q395 -179 352 -184T267 -190Q215 -190 175 -182T106 -154T63 -103T48 -24V-7Q48 27 65 61T125 150L170 208Q187 230 198 244T215 267T223 284T226 299V327Q226 336 234 341T250 346H350Q358 346 363 340T369 326V299Q369 279 368 263T363 232T350 202T327 167L279 104Q251 67 242 46T233 3V-7Q233 -24 244 -34T282 -44Q321 -44 355 -41T425 -33H428Q445 -33 445 -54V-143Z"  />
<glyph unicode="&#xC0;" horiz-adv-x="669" d="M650 16Q650 0 633 0H493Q485 0 480 5T473 18L437 182H232L196 18Q194 10 189 5T176 0H36Q19 0 19 16Q19 17 19 18T20 21L169 641Q178 677 195 699T234 732T283 748T335 752Q361 752 386 748T434 733T474 699T500 641L649 21Q649 19 649 18T650 16ZM348 595Q346 603 344 606T335 610Q324 610 321 595L260 319H409L348 595ZM453 801Q453 794 444 794H337Q327 794 323 797T313 806L191 928Q187 932 187 936Q187 943 198 943H330Q341 943 345 940T357 928L449 811Q453 806 453 801Z"  />
<glyph unicode="&#xC1;" horiz-adv-x="669" d="M650 16Q650 0 633 0H493Q485 0 480 5T473 18L437 182H232L196 18Q194 10 189 5T176 0H36Q19 0 19 16Q19 17 19 18T20 21L169 641Q178 677 195 699T234 732T283 748T335 752Q361 752 386 748T434 733T474 699T500 641L649 21Q649 19 649 18T650 16ZM348 595Q346 603 344 606T335 610Q324 610 321 595L260 319H409L348 595ZM497 936Q497 932 493 928L371 806Q365 800 361 797T347 794H240Q231 794 231 801Q231 806 235 811L328 928Q335 936 339 939T355 943H486Q497 943 497 936Z"  />
<glyph unicode="&#xC2;" horiz-adv-x="669" d="M650 16Q650 0 633 0H493Q485 0 480 5T473 18L437 182H232L196 18Q194 10 189 5T176 0H36Q19 0 19 16Q19 17 19 18T20 21L169 641Q178 677 195 699T234 732T283 748T335 752Q361 752 386 748T434 733T474 699T500 641L649 21Q649 19 649 18T650 16ZM348 595Q346 603 344 606T335 610Q324 610 321 595L260 319H409L348 595ZM534 802Q534 795 525 795H422Q412 795 408 797T398 807L335 877L271 807Q265 800 261 798T247 795H144Q135 795 135 802Q135 807 139 812L228 929Q235 937 239 940T255 944H415Q426 944 430 941T442 929L530 812Q534 807 534 802Z"  />
<glyph unicode="&#xC3;" horiz-adv-x="669" d="M650 16Q650 0 633 0H493Q485 0 480 5T473 18L437 182H232L196 18Q194 10 189 5T176 0H36Q19 0 19 16Q19 17 19 18T20 21L169 641Q178 677 195 699T234 732T283 748T335 752Q361 752 386 748T434 733T474 699T500 641L649 21Q649 19 649 18T650 16ZM348 595Q346 603 344 606T335 610Q324 610 321 595L260 319H409L348 595ZM535 907Q535 841 503 814T413 787Q398 787 378 792T342 809L300 838Q274 856 259 856Q249 856 243 851T236 829V810Q236 793 221 793H150Q135 793 135 810V829Q135 894 168 921T258 948Q273 948 292 943T328 927L371 899Q384 891 393 886T411 881Q422 881 428 886T434 908V927Q434 943 450 943H520Q535 943 535 927V907H535Z"  />
<glyph unicode="&#xC4;" horiz-adv-x="669" d="M650 16Q650 0 633 0H493Q485 0 480 5T473 18L437 182H232L196 18Q194 10 189 5T176 0H36Q19 0 19 16Q19 17 19 18T20 21L169 641Q178 677 195 699T234 732T283 748T335 752Q361 752 386 748T434 733T474 699T500 641L649 21Q649 19 649 18T650 16ZM348 595Q346 603 344 606T335 610Q324 610 321 595L260 319H409L348 595ZM511 821Q511 813 504 807T489 801H395Q387 801 381 807T374 821V914Q374 922 380 928T395 934H489Q497 934 504 928T511 914V821ZM294 821Q294 813 288 807T273 801H179Q171 801 164 807T157 821V914Q157 922 164 928T179 934H273Q281 934 287 928T294 914V821Z"  />
<glyph unicode="&#xC5;" horiz-adv-x="669" d="M650 16Q650 0 633 0H493Q485 0 480 5T473 18L437 182H232L196 18Q194 10 189 5T176 0H36Q19 0 19 16Q19 17 19 18T20 21L169 641Q178 677 195 699T234 732T283 748T335 752Q361 752 386 748T434 733T474 699T500 641L649 21Q649 19 649 18T650 16ZM348 595Q346 603 344 606T335 610Q324 610 321 595L260 319H409L348 595ZM451 895Q451 871 442 850T417 812T380 787T334 778Q310 778 289 787T251 812T226 849T217 895Q217 919 226 940T251 978T288 1003T334 1012Q358 1012 379 1003T417 978T442 941T451 895ZM378 895Q378 913 365 926T334 939Q316 939 303 926T290 895Q290 877 303 864T334 851Q352 851 365 864T378 895Z"  />
<glyph unicode="&#xC6;" horiz-adv-x="923" d="M867 25Q867 7 847 4Q834 2 821 0T790 -4T745 -7T678 -9Q632 -9 590 -2T515 26T461 84T436 182H232L196 18Q194 10 189 5T176 0H36Q19 0 19 16Q19 17 19 18T20 21L169 641Q178 677 195 697T234 728T283 740T335 743H847Q867 743 867 723V626Q867 618 861 612T847 606H605V447H839Q847 447 853 441T859 427V332Q859 324 853 318T839 312H605V206Q605 167 619 153T669 138H847Q855 138 861 132T867 118V25ZM435 610H335Q324 610 321 595L260 319H435V610Z"  />
<glyph unicode="&#xC7;" horiz-adv-x="561" d="M520 31Q520 20 515 16T498 8Q482 3 442 -3T349 -9Q292 -9 239 7T144 60T78 159T53 309V435Q53 524 78 585T144 683T238 736T349 752Q402 752 442 746T498 735Q509 732 514 728T520 713V616Q520 596 501 596H498Q469 598 431 601T350 604Q324 604 302 597T262 570T236 518T226 435V309Q226 259 235 227T262 175T301 148T350 140Q392 140 430 143T498 148H501Q520 148 520 128V31ZM430 -42Q430 -46 426 -50L303 -172Q297 -178 293 -181T279 -184H172Q163 -184 163 -177Q163 -172 167 -167L260 -50Q267 -42 271 -39T287 -35H419Q430 -35 430 -42Z"  />
<glyph unicode="&#xC8;" horiz-adv-x="580" d="M524 25Q524 7 504 4Q478 0 435 -4T310 -9Q262 -9 218 -1T141 30T87 95T67 206V538Q67 606 87 648T140 713T218 744T311 752Q351 752 381 751T435 747T474 743T504 739Q524 736 524 719V626Q524 618 518 612T504 606H301Q266 606 252 592T237 538V447H496Q504 447 510 441T516 427V332Q516 324 510 318T496 312H237V206Q237 167 251 153T301 138H504Q512 138 518 132T524 118V25H524ZM394 802Q394 795 385 795H278Q268 795 264 798T254 807L132 929Q128 933 128 937Q128 944 139 944H271Q282 944 286 941T298 929L390 812Q394 807 394 802Z"  />
<glyph unicode="&#xC9;" horiz-adv-x="580" d="M524 25Q524 7 504 4Q478 0 435 -4T310 -9Q262 -9 218 -1T141 30T87 95T67 206V538Q67 606 87 648T140 713T218 744T311 752Q351 752 381 751T435 747T474 743T504 739Q524 736 524 719V626Q524 618 518 612T504 606H301Q266 606 252 592T237 538V447H496Q504 447 510 441T516 427V332Q516 324 510 318T496 312H237V206Q237 167 251 153T301 138H504Q512 138 518 132T524 118V25H524ZM477 937Q477 933 473 929L351 807Q345 801 341 798T327 795H220Q211 795 211 802Q211 807 215 812L308 929Q315 937 319 940T335 944H466Q477 944 477 937Z"  />
<glyph unicode="&#xCA;" horiz-adv-x="580" d="M524 25Q524 7 504 4Q478 0 435 -4T310 -9Q262 -9 218 -1T141 30T87 95T67 206V538Q67 606 87 648T140 713T218 744T311 752Q351 752 381 751T435 747T474 743T504 739Q524 736 524 719V626Q524 618 518 612T504 606H301Q266 606 252 592T237 538V447H496Q504 447 510 441T516 427V332Q516 324 510 318T496 312H237V206Q237 167 251 153T301 138H504Q512 138 518 132T524 118V25H524ZM509 802Q509 795 500 795H397Q387 795 383 797T373 807L310 877L246 807Q240 800 236 798T222 795H119Q110 795 110 802Q110 807 114 812L203 929Q210 937 214 940T230 944H390Q401 944 405 941T417 929L505 812Q509 807 509 802Z"  />
<glyph unicode="&#xCB;" horiz-adv-x="580" d="M524 25Q524 7 504 4Q478 0 435 -4T310 -9Q262 -9 218 -1T141 30T87 95T67 206V538Q67 606 87 648T140 713T218 744T311 752Q351 752 381 751T435 747T474 743T504 739Q524 736 524 719V626Q524 618 518 612T504 606H301Q266 606 252 592T237 538V447H496Q504 447 510 441T516 427V332Q516 324 510 318T496 312H237V206Q237 167 251 153T301 138H504Q512 138 518 132T524 118V25H524ZM470 821Q470 813 463 807T448 801H354Q346 801 340 807T333 821V914Q333 922 339 928T354 934H448Q456 934 463 928T470 914V821ZM253 821Q253 813 247 807T232 801H138Q130 801 123 807T116 821V914Q116 922 123 928T138 934H232Q240 934 246 928T253 914V821Z"  />
<glyph unicode="&#xCC;" horiz-adv-x="311" d="M241 20Q241 12 236 6T222 0H88Q80 0 75 6T70 20V724Q70 743 88 743H222Q241 743 241 724V20H241ZM255 802Q255 795 246 795H139Q129 795 125 798T115 807L-7 929Q-11 933 -11 937Q-11 944 0 944H132Q143 944 147 941T159 929L251 812Q255 807 255 802Z"  />
<glyph unicode="&#xCD;" horiz-adv-x="311" d="M241 20Q241 12 236 6T222 0H88Q80 0 75 6T70 20V724Q70 743 88 743H222Q241 743 241 724V20H241ZM327 937Q327 933 323 929L201 807Q195 801 191 798T177 795H70Q61 795 61 802Q61 807 65 812L158 929Q165 937 169 940T185 944H316Q327 944 327 937Z"  />
<glyph unicode="&#xCE;" horiz-adv-x="311" d="M241 20Q241 12 236 6T222 0H88Q80 0 75 6T70 20V724Q70 743 88 743H222Q241 743 241 724V20H241ZM357 801Q357 794 348 794H245Q235 794 231 796T221 806L158 876L94 806Q88 799 84 797T70 794H-33Q-42 794 -42 801Q-42 806 -38 811L51 928Q58 936 62 939T78 943H238Q249 943 253 940T265 928L353 811Q357 806 357 801Z"  />
<glyph unicode="&#xCF;" horiz-adv-x="311" d="M241 20Q241 12 236 6T222 0H88Q80 0 75 6T70 20V724Q70 743 88 743H222Q241 743 241 724V20H241ZM333 821Q333 813 326 807T311 801H217Q209 801 203 807T196 821V914Q196 922 202 928T217 934H311Q319 934 326 928T333 914V821ZM116 821Q116 813 110 807T95 801H1Q-7 801 -14 807T-21 821V914Q-21 922 -14 928T1 934H95Q103 934 109 928T116 914V821Z"  />
<glyph unicode="&#xD0;" horiz-adv-x="682" d="M631 321Q631 232 608 170T542 68T442 10T312 -9Q237 -9 185 -5T95 7Q81 9 74 17T66 42V312H11Q-8 312 -8 331V428Q-8 447 11 447H66V701Q66 718 73 726T95 736Q134 743 185 747T312 752Q383 752 441 734T542 676T607 574T631 422V321ZM457 422Q457 475 448 510T420 566T374 595T312 604Q305 604 295 604T274 604T254 603T238 602V447H299Q318 447 318 428V331Q318 312 299 312H238V140Q244 140 253 140T273 139T294 139T312 139Q347 139 374 147T419 177T447 233T457 321V422Z"  />
<glyph unicode="&#xD1;" horiz-adv-x="729" d="M659 38Q659 22 648 11T620 0H522Q506 0 494 5T470 31L242 425Q237 433 233 433Q228 433 228 425V20Q228 12 222 6T208 0H90Q82 0 76 6T70 20V705Q70 721 81 732T108 743H209Q224 743 233 736T251 712L488 300Q493 292 496 292Q501 292 501 301V724Q501 732 507 737T521 743H639Q647 743 653 738T659 724V38H659ZM558 907Q558 841 526 814T436 787Q421 787 401 792T365 809L323 838Q297 856 282 856Q272 856 266 851T259 829V810Q259 793 244 793H173Q158 793 158 810V829Q158 894 191 921T281 948Q296 948 315 943T351 927L394 899Q407 891 416 886T434 881Q445 881 451 886T457 908V927Q457 943 473 943H543Q558 943 558 927V907H558Z"  />
<glyph unicode="&#xD2;" horiz-adv-x="698" d="M645 312Q645 225 622 164T559 65T465 9T349 -9Q287 -9 233 8T139 64T76 164T53 312V431Q53 518 76 579T139 678T233 734T349 752Q411 752 465 735T559 679T622 579T645 431V312ZM473 431Q473 522 443 562T349 602Q286 602 256 562T226 431V312Q226 221 256 181T349 141Q412 141 442 181T473 312V431ZM438 801Q438 794 429 794H322Q312 794 308 797T298 806L176 928Q172 932 172 936Q172 943 183 943H315Q326 943 330 940T342 928L434 811Q438 806 438 801Z"  />
<glyph unicode="&#xD3;" horiz-adv-x="698" d="M645 312Q645 225 622 164T559 65T465 9T349 -9Q287 -9 233 8T139 64T76 164T53 312V431Q53 518 76 579T139 678T233 734T349 752Q411 752 465 735T559 679T622 579T645 431V312ZM473 431Q473 522 443 562T349 602Q286 602 256 562T226 431V312Q226 221 256 181T349 141Q412 141 442 181T473 312V431ZM514 937Q514 933 510 929L388 807Q382 801 378 798T364 795H257Q248 795 248 802Q248 807 252 812L345 929Q352 937 356 940T372 944H503Q514 944 514 937Z"  />
<glyph unicode="&#xD4;" horiz-adv-x="698" d="M645 312Q645 225 622 164T559 65T465 9T349 -9Q287 -9 233 8T139 64T76 164T53 312V431Q53 518 76 579T139 678T233 734T349 752Q411 752 465 735T559 679T622 579T645 431V312ZM473 431Q473 522 443 562T349 602Q286 602 256 562T226 431V312Q226 221 256 181T349 141Q412 141 442 181T473 312V431ZM544 802Q544 795 535 795H432Q422 795 418 797T408 807L345 877L281 807Q275 800 271 798T257 795H154Q145 795 145 802Q145 807 149 812L238 929Q245 937 249 940T265 944H425Q436 944 440 941T452 929L540 812Q544 807 544 802Z"  />
<glyph unicode="&#xD5;" horiz-adv-x="698" d="M645 312Q645 225 622 164T559 65T465 9T349 -9Q287 -9 233 8T139 64T76 164T53 312V431Q53 518 76 579T139 678T233 734T349 752Q411 752 465 735T559 679T622 579T645 431V312ZM473 431Q473 522 443 562T349 602Q286 602 256 562T226 431V312Q226 221 256 181T349 141Q412 141 442 181T473 312V431ZM553 908Q553 842 521 815T431 788Q416 788 396 793T360 810L318 839Q292 857 277 857Q267 857 261 852T254 830V811Q254 794 239 794H168Q153 794 153 811V830Q153 895 186 922T276 949Q291 949 310 944T346 928L389 900Q402 892 411 887T429 882Q440 882 446 887T452 909V928Q452 944 468 944H538Q553 944 553 928V908H553Z"  />
<glyph unicode="&#xD6;" horiz-adv-x="698" d="M645 312Q645 225 622 164T559 65T465 9T349 -9Q287 -9 233 8T139 64T76 164T53 312V431Q53 518 76 579T139 678T233 734T349 752Q411 752 465 735T559 679T622 579T645 431V312ZM473 431Q473 522 443 562T349 602Q286 602 256 562T226 431V312Q226 221 256 181T349 141Q412 141 442 181T473 312V431ZM526 821Q526 813 519 807T504 801H410Q402 801 396 807T389 821V914Q389 922 395 928T410 934H504Q512 934 519 928T526 914V821ZM309 821Q309 813 303 807T288 801H194Q186 801 179 807T172 821V914Q172 922 179 928T194 934H288Q296 934 302 928T309 914V821Z"  />
<glyph unicode="&#xD7;" horiz-adv-x="645" d="M537 255Q537 250 532 245L469 182Q464 177 459 177Q451 177 443 185L323 305L203 185Q195 177 188 177Q183 177 178 182L114 246Q109 251 109 256Q109 263 117 271L237 391L117 511Q109 519 109 526Q109 531 114 536L178 600Q183 605 188 605Q195 605 203 597L323 477L443 597Q451 605 459 605Q464 605 469 600L532 537Q537 532 537 527Q537 519 529 511L409 391L529 271Q537 263 537 255Z"  />
<glyph unicode="&#xD8;" horiz-adv-x="698" d="M677 739Q677 735 674 731L599 628Q621 591 633 543T645 431V312Q645 225 622 164T559 65T465 9T349 -9Q248 -9 175 37L156 10Q151 4 145 -2T130 -9H33Q22 -9 22 2Q22 5 25 10L100 114Q78 151 66 200T53 312V431Q53 518 76 579T139 678T233 734T349 752Q399 752 443 741T525 706L543 731Q548 737 554 743T569 750H666Q677 750 677 739ZM431 575Q401 602 349 602Q286 602 256 562T226 431V312Q226 307 226 302T227 291L431 575ZM473 451L269 167Q298 141 349 141Q412 141 442 181T473 312V431V444V451Z"  />
<glyph unicode="&#xD9;" horiz-adv-x="711" d="M644 279Q644 193 621 138T559 50T468 4T355 -9Q295 -9 243 4T151 49T90 137T67 279V724Q67 732 73 737T87 743H218Q226 743 232 738T238 724V279Q238 241 243 214T262 169T298 143T355 134Q389 134 411 142T447 168T467 213T473 279V724Q473 732 479 737T493 743H623Q631 743 637 738T644 724V279H644ZM460 801Q460 794 451 794H344Q334 794 330 797T320 806L198 928Q194 932 194 936Q194 943 205 943H337Q348 943 352 940T364 928L456 811Q460 806 460 801Z"  />
<glyph unicode="&#xDA;" horiz-adv-x="711" d="M644 279Q644 193 621 138T559 50T468 4T355 -9Q295 -9 243 4T151 49T90 137T67 279V724Q67 732 73 737T87 743H218Q226 743 232 738T238 724V279Q238 241 243 214T262 169T298 143T355 134Q389 134 411 142T447 168T467 213T473 279V724Q473 732 479 737T493 743H623Q631 743 637 738T644 724V279H644ZM534 936Q534 932 530 928L408 806Q402 800 398 797T384 794H277Q268 794 268 801Q268 806 272 811L365 928Q372 936 376 939T392 943H523Q534 943 534 936Z"  />
<glyph unicode="&#xDB;" horiz-adv-x="711" d="M644 279Q644 193 621 138T559 50T468 4T355 -9Q295 -9 243 4T151 49T90 137T67 279V724Q67 732 73 737T87 743H218Q226 743 232 738T238 724V279Q238 241 243 214T262 169T298 143T355 134Q389 134 411 142T447 168T467 213T473 279V724Q473 732 479 737T493 743H623Q631 743 637 738T644 724V279H644ZM554 802Q554 795 545 795H442Q432 795 428 797T418 807L355 877L291 807Q285 800 281 798T267 795H164Q155 795 155 802Q155 807 159 812L248 929Q255 937 259 940T275 944H435Q446 944 450 941T462 929L550 812Q554 807 554 802Z"  />
<glyph unicode="&#xDC;" horiz-adv-x="711" d="M644 279Q644 193 621 138T559 50T468 4T355 -9Q295 -9 243 4T151 49T90 137T67 279V724Q67 732 73 737T87 743H218Q226 743 232 738T238 724V279Q238 241 243 214T262 169T298 143T355 134Q389 134 411 142T447 168T467 213T473 279V724Q473 732 479 737T493 743H623Q631 743 637 738T644 724V279H644ZM532 821Q532 813 525 807T510 801H416Q408 801 402 807T395 821V914Q395 922 401 928T416 934H510Q518 934 525 928T532 914V821ZM315 821Q315 813 309 807T294 801H200Q192 801 185 807T178 821V914Q178 922 185 928T200 934H294Q302 934 308 928T315 914V821Z"  />
<glyph unicode="&#xDD;" horiz-adv-x="647" d="M626 728Q626 723 625 721L474 375Q459 340 443 323T409 298V20Q409 12 403 6T389 0H258Q250 0 244 6T238 20V298Q220 306 204 323T172 375L21 721Q20 723 20 728Q20 734 24 738T36 743H180Q188 743 193 738T200 726L308 444Q312 434 315 432T323 429Q328 429 331 431T338 444L446 726Q448 733 453 738T466 743H610Q618 743 622 739T626 728ZM509 936Q509 932 505 928L383 806Q377 800 373 797T359 794H252Q243 794 243 801Q243 806 247 811L340 928Q347 936 351 939T367 943H498Q509 943 509 936Z"  />
<glyph unicode="&#xDE;" horiz-adv-x="651" d="M618 414Q618 342 592 295T524 220T427 181T317 169Q297 169 279 169T239 171V20Q239 12 234 6T220 0H89Q81 0 76 6T70 20V724Q70 743 89 743H220Q239 743 239 724V665Q243 665 252 665T271 666T293 666T313 666Q371 666 425 655T523 616T592 542T618 425V414ZM447 425Q447 479 414 500T317 522Q312 522 301 522T277 522T254 522T239 521V314Q243 314 254 314T277 313T301 313T317 313Q382 313 414 336T447 414V425Z"  />
<glyph unicode="&#xDF;" horiz-adv-x="652" d="M598 225Q598 165 578 121T525 48T447 5T355 -9Q342 -9 326 -8T294 -3Q286 -1 280 3T274 16V112Q274 117 276 122T285 128H286Q295 127 304 127T323 127Q346 127 366 131T402 147T426 177T435 225V246Q435 284 410 309T328 334H297Q289 334 283 339T277 353V432Q277 440 283 445T297 451H328Q356 451 374 458T404 476T421 503T426 534V553Q426 588 404 611T329 635Q296 635 275 626T242 601T225 563T220 515V21Q220 13 215 7T201 0H77Q69 0 63 6T57 21V515Q57 648 126 711T329 774Q454 774 521 717T588 553V534Q588 511 581 490T560 450T531 419T497 397Q545 377 571 337T598 246V225H598Z"  />
<glyph unicode="&#xE0;" horiz-adv-x="562" d="M502 20Q502 12 496 6T482 0H370Q362 0 356 6T350 20V36Q321 15 289 3T211 -9Q178 -9 148 -1T93 28T55 81T40 163V172Q40 260 98 300T286 341H340V377Q340 420 320 433T265 446Q241 446 217 446T170 444T129 442T99 439H94Q86 439 81 443T76 457V538Q76 555 95 560Q123 567 170 574T268 581Q322 581 365 570T439 534T485 471T502 377V20ZM343 245H286Q260 245 243 241T216 227T202 204T198 172V163Q198 131 213 122T261 113Q284 113 304 119T343 135V245ZM366 637Q366 630 357 630H250Q240 630 236 633T226 642L104 764Q100 768 100 772Q100 779 111 779H243Q254 779 258 776T270 764L362 647Q366 642 366 637Z"  />
<glyph unicode="&#xE1;" horiz-adv-x="562" d="M502 20Q502 12 496 6T482 0H370Q362 0 356 6T350 20V36Q321 15 289 3T211 -9Q178 -9 148 -1T93 28T55 81T40 163V172Q40 260 98 300T286 341H340V377Q340 420 320 433T265 446Q241 446 217 446T170 444T129 442T99 439H94Q86 439 81 443T76 457V538Q76 555 95 560Q123 567 170 574T268 581Q322 581 365 570T439 534T485 471T502 377V20ZM343 245H286Q260 245 243 241T216 227T202 204T198 172V163Q198 131 213 122T261 113Q284 113 304 119T343 135V245ZM465 772Q465 768 461 764L339 642Q333 636 329 633T315 630H208Q199 630 199 637Q199 642 203 647L296 764Q303 772 307 775T323 779H454Q465 779 465 772Z"  />
<glyph unicode="&#xE2;" horiz-adv-x="562" d="M502 20Q502 12 496 6T482 0H370Q362 0 356 6T350 20V36Q321 15 289 3T211 -9Q178 -9 148 -1T93 28T55 81T40 163V172Q40 260 98 300T286 341H340V377Q340 420 320 433T265 446Q241 446 217 446T170 444T129 442T99 439H94Q86 439 81 443T76 457V538Q76 555 95 560Q123 567 170 574T268 581Q322 581 365 570T439 534T485 471T502 377V20ZM343 245H286Q260 245 243 241T216 227T202 204T198 172V163Q198 131 213 122T261 113Q284 113 304 119T343 135V245ZM485 637Q485 630 476 630H373Q363 630 359 632T349 642L286 712L222 642Q216 635 212 633T198 630H95Q86 630 86 637Q86 642 90 647L179 764Q186 772 190 775T206 779H366Q377 779 381 776T393 764L481 647Q485 642 485 637Z"  />
<glyph unicode="&#xE3;" horiz-adv-x="562" d="M502 20Q502 12 496 6T482 0H370Q362 0 356 6T350 20V36Q321 15 289 3T211 -9Q178 -9 148 -1T93 28T55 81T40 163V172Q40 260 98 300T286 341H340V377Q340 420 320 433T265 446Q241 446 217 446T170 444T129 442T99 439H94Q86 439 81 443T76 457V538Q76 555 95 560Q123 567 170 574T268 581Q322 581 365 570T439 534T485 471T502 377V20ZM343 245H286Q260 245 243 241T216 227T202 204T198 172V163Q198 131 213 122T261 113Q284 113 304 119T343 135V245ZM489 746Q489 680 457 653T367 626Q352 626 332 631T296 648L254 677Q228 695 213 695Q203 695 197 690T190 668V649Q190 632 175 632H104Q89 632 89 649V668Q89 733 122 760T212 787Q227 787 246 782T282 766L325 738Q338 730 347 725T365 720Q376 720 382 725T388 747V766Q388 782 404 782H474Q489 782 489 766V746H489Z"  />
<glyph unicode="&#xE4;" horiz-adv-x="562" d="M502 20Q502 12 496 6T482 0H370Q362 0 356 6T350 20V36Q321 15 289 3T211 -9Q178 -9 148 -1T93 28T55 81T40 163V172Q40 260 98 300T286 341H340V377Q340 420 320 433T265 446Q241 446 217 446T170 444T129 442T99 439H94Q86 439 81 443T76 457V538Q76 555 95 560Q123 567 170 574T268 581Q322 581 365 570T439 534T485 471T502 377V20ZM343 245H286Q260 245 243 241T216 227T202 204T198 172V163Q198 131 213 122T261 113Q284 113 304 119T343 135V245ZM464 660Q464 652 457 646T442 640H348Q340 640 334 646T327 660V753Q327 761 333 767T348 773H442Q450 773 457 767T464 753V660ZM247 660Q247 652 241 646T226 640H132Q124 640 117 646T110 660V753Q110 761 117 767T132 773H226Q234 773 240 767T247 753V660Z"  />
<glyph unicode="&#xE5;" horiz-adv-x="562" d="M502 20Q502 12 496 6T482 0H370Q362 0 356 6T350 20V36Q321 15 289 3T211 -9Q178 -9 148 -1T93 28T55 81T40 163V172Q40 260 98 300T286 341H340V377Q340 420 320 433T265 446Q241 446 217 446T170 444T129 442T99 439H94Q86 439 81 443T76 457V538Q76 555 95 560Q123 567 170 574T268 581Q322 581 365 570T439 534T485 471T502 377V20ZM343 245H286Q260 245 243 241T216 227T202 204T198 172V163Q198 131 213 122T261 113Q284 113 304 119T343 135V245ZM400 741Q400 717 391 696T366 658T329 633T283 624Q259 624 238 633T200 658T175 695T166 741Q166 765 175 786T200 824T237 849T283 858Q307 858 328 849T366 824T391 787T400 741ZM327 741Q327 759 314 772T283 785Q265 785 252 772T239 741Q239 723 252 710T283 697Q301 697 314 710T327 741Z"  />
<glyph unicode="&#xE6;" horiz-adv-x="881" d="M835 265Q835 257 829 251T814 244H504V203Q504 160 534 143T620 126Q634 126 657 126T706 128T755 131T793 134H798Q814 134 814 118V46Q814 35 810 30T795 20Q753 6 700 -1T597 -9Q510 -9 456 37Q416 15 365 3T261 -9Q219 -9 180 0T110 32T61 88T42 172V183Q42 227 60 257T111 306T193 333T301 341H343V350Q343 406 326 426T265 446Q242 446 218 446T171 444T130 442T102 439H99Q82 439 82 457V536Q82 555 102 560Q115 563 133 567T173 574T218 579T265 581Q375 581 435 521Q465 550 503 565T593 581Q656 581 702 563T777 511T821 431T835 329V265ZM680 350Q680 399 660 427T592 456Q546 456 525 428T504 350V332H680V350ZM348 253H301Q248 253 222 238T196 183V172Q196 135 220 121T275 106Q295 106 314 109T348 119V253Z"  />
<glyph unicode="&#xE7;" horiz-adv-x="474" d="M432 29Q432 18 427 14T411 6Q390 1 357 -4T278 -9Q172 -9 109 56T45 244V328Q45 451 108 516T278 581Q323 581 356 576T411 566Q422 563 427 559T432 543V454Q432 446 427 442T413 437H411Q383 440 358 442T289 444Q272 444 257 439T231 420T214 384T207 328V244Q207 211 213 189T231 153T257 134T289 128Q332 128 357 130T411 135H413Q421 135 426 131T432 118V29ZM345 -42Q345 -46 341 -50L218 -172Q211 -178 208 -181T194 -184H87Q77 -184 77 -177Q77 -174 82 -167L175 -50Q181 -42 186 -39T202 -35H334Q345 -35 345 -42Z"  />
<glyph unicode="&#xE8;" horiz-adv-x="590" d="M545 260Q545 236 524 236H205V234Q205 213 210 193T227 158T258 134T308 125Q332 125 359 126T412 128T462 130T500 134H503Q522 134 522 118V42Q522 30 518 24T501 15Q453 3 407 -3T296 -9Q251 -9 206 4T125 47T67 126T45 248V318Q45 378 62 427T111 510T191 562T298 581Q359 581 405 561T483 506T529 423T545 318V260ZM387 340Q387 396 363 423T297 451Q255 451 230 423T205 340V336H387V340ZM407 637Q407 630 398 630H291Q281 630 277 633T267 642L145 764Q141 768 141 772Q141 779 152 779H284Q295 779 299 776T311 764L403 647Q407 642 407 637Z"  />
<glyph unicode="&#xE9;" horiz-adv-x="590" d="M545 260Q545 236 524 236H205V234Q205 213 210 193T227 158T258 134T308 125Q332 125 359 126T412 128T462 130T500 134H503Q522 134 522 118V42Q522 30 518 24T501 15Q453 3 407 -3T296 -9Q251 -9 206 4T125 47T67 126T45 248V318Q45 378 62 427T111 510T191 562T298 581Q359 581 405 561T483 506T529 423T545 318V260ZM387 340Q387 396 363 423T297 451Q255 451 230 423T205 340V336H387V340ZM469 772Q469 768 465 764L343 642Q337 636 333 633T319 630H212Q203 630 203 637Q203 642 207 647L300 764Q307 772 311 775T327 779H458Q469 779 469 772Z"  />
<glyph unicode="&#xEA;" horiz-adv-x="590" d="M545 260Q545 236 524 236H205V234Q205 213 210 193T227 158T258 134T308 125Q332 125 359 126T412 128T462 130T500 134H503Q522 134 522 118V42Q522 30 518 24T501 15Q453 3 407 -3T296 -9Q251 -9 206 4T125 47T67 126T45 248V318Q45 378 62 427T111 510T191 562T298 581Q359 581 405 561T483 506T529 423T545 318V260ZM387 340Q387 396 363 423T297 451Q255 451 230 423T205 340V336H387V340ZM494 637Q494 630 485 630H382Q372 630 368 632T358 642L295 712L231 642Q225 635 221 633T207 630H104Q95 630 95 637Q95 642 99 647L188 764Q195 772 199 775T215 779H375Q386 779 390 776T402 764L490 647Q494 642 494 637Z"  />
<glyph unicode="&#xEB;" horiz-adv-x="590" d="M545 260Q545 236 524 236H205V234Q205 213 210 193T227 158T258 134T308 125Q332 125 359 126T412 128T462 130T500 134H503Q522 134 522 118V42Q522 30 518 24T501 15Q453 3 407 -3T296 -9Q251 -9 206 4T125 47T67 126T45 248V318Q45 378 62 427T111 510T191 562T298 581Q359 581 405 561T483 506T529 423T545 318V260ZM387 340Q387 396 363 423T297 451Q255 451 230 423T205 340V336H387V340ZM470 658Q470 650 463 644T448 638H354Q346 638 340 644T333 658V751Q333 759 339 765T354 771H448Q456 771 463 765T470 751V658ZM253 658Q253 650 247 644T232 638H138Q130 638 123 644T116 658V751Q116 759 123 765T138 771H232Q240 771 246 765T253 751V658Z"  />
<glyph unicode="&#xEC;" horiz-adv-x="290" d="M226 21Q226 13 220 7T205 0H85Q77 0 71 6T64 21V552Q64 560 70 566T85 573H205Q213 573 219 567T226 552V21H226ZM233 637Q233 630 224 630H117Q107 630 103 633T93 642L-29 764Q-33 768 -33 772Q-33 779 -22 779H110Q121 779 125 776T137 764L229 647Q233 642 233 637Z"  />
<glyph unicode="&#xED;" horiz-adv-x="290" d="M226 21Q226 13 220 7T205 0H85Q77 0 71 6T64 21V552Q64 560 70 566T85 573H205Q213 573 219 567T226 552V21H226ZM329 772Q329 768 325 764L203 642Q197 636 193 633T179 630H72Q63 630 63 637Q63 642 67 647L160 764Q167 772 171 775T187 779H318Q329 779 329 772Z"  />
<glyph unicode="&#xEE;" horiz-adv-x="290" d="M226 21Q226 13 220 7T205 0H85Q77 0 71 6T64 21V552Q64 560 70 566T85 573H205Q213 573 219 567T226 552V21H226ZM346 637Q346 630 337 630H234Q224 630 220 632T210 642L147 712L83 642Q77 635 73 633T59 630H-44Q-53 630 -53 637Q-53 642 -49 647L40 764Q47 772 51 775T67 779H227Q238 779 242 776T254 764L342 647Q346 642 346 637Z"  />
<glyph unicode="&#xEF;" horiz-adv-x="290" d="M226 21Q226 13 220 7T205 0H85Q77 0 71 6T64 21V552Q64 560 70 566T85 573H205Q213 573 219 567T226 552V21H226ZM324 658Q324 650 317 644T302 638H208Q200 638 194 644T187 658V751Q187 759 193 765T208 771H302Q310 771 317 765T324 751V658ZM107 658Q107 650 101 644T86 638H-8Q-16 638 -23 644T-30 658V751Q-30 759 -23 765T-8 771H86Q94 771 100 765T107 751V658Z"  />
<glyph unicode="&#xF0;" horiz-adv-x="589" d="M545 259Q545 124 481 58T296 -9Q169 -9 107 60T44 259V290Q44 425 109 491T295 557Q306 557 320 556T345 548Q328 569 299 590T233 629L162 575Q154 569 149 569Q143 569 138 575L111 605Q108 608 108 613Q108 622 118 629L159 660Q147 664 135 668T110 675Q104 677 99 680T94 689Q94 693 95 695L120 763Q124 774 134 774Q139 774 142 773Q174 765 202 756T258 736L337 796Q342 800 350 800Q358 800 362 795L389 766Q393 762 393 758Q393 752 383 744L330 703Q384 674 424 636T491 547T531 434T545 290V259ZM384 290Q384 360 363 391T295 422Q248 422 227 391T205 290V259Q205 189 227 158T296 127Q343 127 363 158T384 259V290Z"  />
<glyph unicode="&#xF1;" horiz-adv-x="612" d="M552 21Q552 13 546 7T531 0H410Q402 0 396 6T390 21V354Q390 380 387 398T376 427T354 442T316 447Q294 447 271 438T222 415V21Q222 13 216 7T202 0H81Q73 0 67 6T60 21V553Q60 561 66 567T80 573H192Q200 573 206 567T212 553V529Q253 558 290 569T375 581Q429 581 463 563T517 515T544 443T552 354V21H552ZM503 746Q503 680 471 653T381 626Q366 626 346 631T310 648L268 677Q242 695 227 695Q217 695 211 690T204 668V649Q204 632 189 632H118Q103 632 103 649V668Q103 733 136 760T226 787Q241 787 260 782T296 766L339 738Q352 730 361 725T379 720Q390 720 396 725T402 747V766Q402 782 418 782H488Q503 782 503 766V746H503Z"  />
<glyph unicode="&#xF2;" horiz-adv-x="589" d="M545 251Q545 191 529 143T481 62T403 10T295 -9Q234 -9 188 9T109 61T61 143T44 251V321Q44 381 60 429T109 510T187 562T295 581Q356 581 402 563T480 511T528 429T545 321V251ZM384 321Q384 443 295 443Q251 443 228 413T205 321V251Q205 190 228 159T295 128Q384 128 384 251V321ZM386 637Q386 630 377 630H270Q260 630 256 633T246 642L124 764Q120 768 120 772Q120 779 131 779H263Q274 779 278 776T290 764L382 647Q386 642 386 637Z"  />
<glyph unicode="&#xF3;" horiz-adv-x="589" d="M545 251Q545 191 529 143T481 62T403 10T295 -9Q234 -9 188 9T109 61T61 143T44 251V321Q44 381 60 429T109 510T187 562T295 581Q356 581 402 563T480 511T528 429T545 321V251ZM384 321Q384 443 295 443Q251 443 228 413T205 321V251Q205 190 228 159T295 128Q384 128 384 251V321ZM465 772Q465 768 461 764L339 642Q333 636 329 633T315 630H208Q199 630 199 637Q199 642 203 647L296 764Q303 772 307 775T323 779H454Q465 779 465 772Z"  />
<glyph unicode="&#xF4;" horiz-adv-x="589" d="M545 251Q545 191 529 143T481 62T403 10T295 -9Q234 -9 188 9T109 61T61 143T44 251V321Q44 381 60 429T109 510T187 562T295 581Q356 581 402 563T480 511T528 429T545 321V251ZM384 321Q384 443 295 443Q251 443 228 413T205 321V251Q205 190 228 159T295 128Q384 128 384 251V321ZM493 637Q493 630 484 630H381Q371 630 367 632T357 642L294 712L230 642Q224 635 220 633T206 630H103Q94 630 94 637Q94 642 98 647L187 764Q194 772 198 775T214 779H374Q385 779 389 776T401 764L489 647Q493 642 493 637Z"  />
<glyph unicode="&#xF5;" horiz-adv-x="589" d="M545 251Q545 191 529 143T481 62T403 10T295 -9Q234 -9 188 9T109 61T61 143T44 251V321Q44 381 60 429T109 510T187 562T295 581Q356 581 402 563T480 511T528 429T545 321V251ZM384 321Q384 443 295 443Q251 443 228 413T205 321V251Q205 190 228 159T295 128Q384 128 384 251V321ZM493 746Q493 680 461 653T371 626Q356 626 336 631T300 648L258 677Q232 695 217 695Q207 695 201 690T194 668V649Q194 632 179 632H108Q93 632 93 649V668Q93 733 126 760T216 787Q231 787 250 782T286 766L329 738Q342 730 351 725T369 720Q380 720 386 725T392 747V766Q392 782 408 782H478Q493 782 493 766V746H493Z"  />
<glyph unicode="&#xF6;" horiz-adv-x="589" d="M545 251Q545 191 529 143T481 62T403 10T295 -9Q234 -9 188 9T109 61T61 143T44 251V321Q44 381 60 429T109 510T187 562T295 581Q356 581 402 563T480 511T528 429T545 321V251ZM384 321Q384 443 295 443Q251 443 228 413T205 321V251Q205 190 228 159T295 128Q384 128 384 251V321ZM470 658Q470 650 463 644T448 638H354Q346 638 340 644T333 658V751Q333 759 339 765T354 771H448Q456 771 463 765T470 751V658ZM253 658Q253 650 247 644T232 638H138Q130 638 123 644T116 658V751Q116 759 123 765T138 771H232Q240 771 246 765T253 751V658Z"  />
<glyph unicode="&#xF7;" horiz-adv-x="645" d="M401 552Q401 544 395 538T381 532H263Q255 532 249 538T243 552V664Q243 672 249 678T263 684H381Q389 684 395 678T401 664V552ZM552 346Q552 338 546 334T532 330H113Q105 330 99 334T93 346V436Q93 444 99 448T113 452H532Q540 452 546 448T552 436V346ZM401 104Q401 96 395 91T381 85H263Q255 85 249 90T243 104V216Q243 224 249 230T263 236H381Q389 236 395 230T401 216V104Z"  />
<glyph unicode="&#xF8;" horiz-adv-x="589" d="M559 598Q559 591 555 587L490 500Q545 433 545 321V251Q545 191 529 143T481 62T403 10T295 -9Q205 -9 145 31L103 -25Q98 -32 95 -33T87 -35H37Q29 -35 29 -27Q29 -21 33 -16L99 73Q44 140 44 251V321Q44 381 60 429T109 510T187 562T295 581Q385 581 445 541L485 596Q490 603 493 604T501 606H551Q559 606 559 598ZM355 420Q332 443 295 443Q251 443 228 413T205 321V251Q205 243 205 235T207 219L355 420ZM384 321Q384 329 384 337T382 353L234 152Q256 128 295 128Q384 128 384 251V321Z"  />
<glyph unicode="&#xF9;" horiz-adv-x="612" d="M552 20Q552 12 546 6T532 0H420Q412 0 406 6T400 20V44Q359 15 322 4T237 -8Q183 -8 149 9T95 58T68 130T60 219V552Q60 560 66 566T81 573H202Q210 573 216 567T222 552V219Q222 193 225 175T236 146T258 131T296 126Q318 126 341 135T390 158V552Q390 560 396 566T410 573H531Q539 573 545 567T552 552V20H552ZM397 637Q397 630 388 630H281Q271 630 267 633T257 642L135 764Q131 768 131 772Q131 779 142 779H274Q285 779 289 776T301 764L393 647Q397 642 397 637Z"  />
<glyph unicode="&#xFA;" horiz-adv-x="612" d="M552 20Q552 12 546 6T532 0H420Q412 0 406 6T400 20V44Q359 15 322 4T237 -8Q183 -8 149 9T95 58T68 130T60 219V552Q60 560 66 566T81 573H202Q210 573 216 567T222 552V219Q222 193 225 175T236 146T258 131T296 126Q318 126 341 135T390 158V552Q390 560 396 566T410 573H531Q539 573 545 567T552 552V20H552ZM489 772Q489 768 485 764L363 642Q357 636 353 633T339 630H232Q223 630 223 637Q223 642 227 647L320 764Q327 772 331 775T347 779H478Q489 779 489 772Z"  />
<glyph unicode="&#xFB;" horiz-adv-x="612" d="M552 20Q552 12 546 6T532 0H420Q412 0 406 6T400 20V44Q359 15 322 4T237 -8Q183 -8 149 9T95 58T68 130T60 219V552Q60 560 66 566T81 573H202Q210 573 216 567T222 552V219Q222 193 225 175T236 146T258 131T296 126Q318 126 341 135T390 158V552Q390 560 396 566T410 573H531Q539 573 545 567T552 552V20H552ZM504 637Q504 630 495 630H392Q382 630 378 632T368 642L305 712L241 642Q235 635 231 633T217 630H114Q105 630 105 637Q105 642 109 647L198 764Q205 772 209 775T225 779H385Q396 779 400 776T412 764L500 647Q504 642 504 637Z"  />
<glyph unicode="&#xFC;" horiz-adv-x="612" d="M552 20Q552 12 546 6T532 0H420Q412 0 406 6T400 20V44Q359 15 322 4T237 -8Q183 -8 149 9T95 58T68 130T60 219V552Q60 560 66 566T81 573H202Q210 573 216 567T222 552V219Q222 193 225 175T236 146T258 131T296 126Q318 126 341 135T390 158V552Q390 560 396 566T410 573H531Q539 573 545 567T552 552V20H552ZM483 658Q483 650 476 644T461 638H367Q359 638 353 644T346 658V751Q346 759 352 765T367 771H461Q469 771 476 765T483 751V658ZM266 658Q266 650 260 644T245 638H151Q143 638 136 644T129 658V751Q129 759 136 765T151 771H245Q253 771 259 765T266 751V658Z"  />
<glyph unicode="&#xFD;" horiz-adv-x="592" d="M570 555Q570 553 570 553T569 550L401 -39Q389 -80 374 -110T335 -161T274 -191T182 -202Q168 -202 151 -201T117 -197T85 -192T61 -186Q53 -183 47 -180T40 -168V-87Q40 -79 46 -74T60 -68H62Q74 -69 90 -70T124 -72T158 -75T187 -76Q214 -76 229 -65T253 -24L262 7H247Q233 7 221 9T196 21T174 48T154 100L22 550Q21 553 21 557Q21 573 41 573H174Q182 573 186 568T193 554L283 178Q287 159 295 159H296H300H304L397 554Q399 562 404 567T418 573H551Q559 573 564 568T570 555ZM489 772Q489 768 485 764L363 642Q357 636 353 633T339 630H232Q223 630 223 637Q223 642 227 647L320 764Q327 772 331 775T347 779H478Q489 779 489 772Z"  />
<glyph unicode="&#xFE;" horiz-adv-x="597" d="M555 249Q555 130 493 61T305 -9Q289 -9 264 -6T222 1V-175Q222 -183 217 -189T203 -195H81Q73 -195 67 -189T60 -175V747Q60 755 65 761T79 767H203Q211 767 216 761T222 747V576Q241 578 262 579T305 581Q423 581 489 515T555 323V249ZM393 323Q393 380 374 413T305 447Q280 447 261 445T222 441V130Q239 128 261 126T305 124Q353 124 373 158T393 249V323Z"  />
<glyph unicode="&#xFF;" horiz-adv-x="592" d="M570 555Q570 553 570 553T569 550L401 -39Q389 -80 374 -110T335 -161T274 -191T182 -202Q168 -202 151 -201T117 -197T85 -192T61 -186Q53 -183 47 -180T40 -168V-87Q40 -79 46 -74T60 -68H62Q74 -69 90 -70T124 -72T158 -75T187 -76Q214 -76 229 -65T253 -24L262 7H247Q233 7 221 9T196 21T174 48T154 100L22 550Q21 553 21 557Q21 573 41 573H174Q182 573 186 568T193 554L283 178Q287 159 295 159H296H300H304L397 554Q399 562 404 567T418 573H551Q559 573 564 568T570 555ZM476 658Q476 650 469 644T454 638H360Q352 638 346 644T339 658V751Q339 759 345 765T360 771H454Q462 771 469 765T476 751V658ZM259 658Q259 650 253 644T238 638H144Q136 638 129 644T122 658V751Q122 759 129 765T144 771H238Q246 771 252 765T259 751V658Z"  />
<glyph unicode="&#x131;" horiz-adv-x="290" d="M226 21Q226 13 220 7T205 0H85Q77 0 71 6T64 21V552Q64 560 70 566T85 573H205Q213 573 219 567T226 552V21H226Z"  />
<glyph unicode="&#x152;" horiz-adv-x="987" d="M931 25Q931 7 911 4Q885 0 842 -4T717 -9Q663 -9 615 1T532 42Q494 15 448 3T349 -9Q287 -9 233 8T139 64T76 164T53 312V431Q53 518 76 579T139 678T233 734T349 752Q402 752 448 740T532 700Q567 731 615 741T718 751Q758 751 788 750T842 746T881 742T911 738Q931 735 931 718V625Q931 617 925 611T911 605H708Q673 605 659 591T644 537V465Q644 460 644 456T645 447H903Q911 447 917 441T923 427V332Q923 324 917 318T903 312H645Q645 303 645 295T644 278V206Q644 167 658 153T708 138H911Q919 138 925 132T931 118V25ZM473 431Q473 522 443 562T349 602Q286 602 256 562T226 431V312Q226 221 256 181T349 141Q412 141 442 181T473 312V431Z"  />
<glyph unicode="&#x153;" horiz-adv-x="932" d="M887 260Q887 236 866 236H547V231V228Q548 207 553 189T571 156T602 134T650 125Q674 125 701 126T754 128T804 130T842 134H845Q864 134 864 118V42Q864 30 860 24T843 15Q795 3 749 -3T638 -9Q593 -9 548 5T467 56Q435 24 393 8T296 -9Q235 -9 189 9T110 61T62 143T45 251V321Q45 381 61 429T110 510T188 562T296 581Q351 581 393 563T468 514Q500 546 543 563T640 581Q701 581 747 561T825 506T871 423T887 318V260ZM729 340Q729 396 705 423T639 451Q598 451 573 424T547 343V336H729V340ZM385 321Q385 443 296 443Q207 443 207 321V251Q207 128 296 128Q385 128 385 251V321Z"  />
<glyph unicode="&#x160;" horiz-adv-x="588" d="M546 210Q546 170 532 131T486 61T401 11T273 -9Q213 -9 168 -3T84 13Q76 15 70 20T64 33V131Q64 142 69 146T82 150H85Q100 148 126 146T181 143T234 140T275 138Q327 138 345 155T364 208Q364 230 351 245T298 284L160 366Q125 387 103 409T67 455T48 504T42 557Q42 598 54 633T97 695T176 737T298 752Q325 752 356 750T417 745T471 738T510 730Q516 728 520 724T525 712V611Q525 604 522 599T508 594H506Q495 595 471 596T415 600T352 603T294 605Q251 605 234 592T216 552Q216 541 219 533T229 518T250 502T283 482L411 413Q489 371 517 321T546 210ZM483 937Q483 932 479 927L390 810Q383 802 379 799T363 795H203Q192 795 188 798T176 810L88 927Q84 932 84 937Q84 944 93 944H196Q206 944 210 942T220 932L283 862L347 932Q353 939 357 941T371 944H474Q483 944 483 937Z"  />
<glyph unicode="&#x161;" horiz-adv-x="503" d="M461 159Q461 124 448 93T409 40T342 4T247 -9Q226 -9 203 -8T155 -3T107 4T65 13Q46 18 46 36V117Q46 125 51 130T65 136H69Q89 133 113 131T162 126T206 123T239 122Q275 122 286 131T298 161Q298 172 290 181T261 203L131 278Q89 302 66 339T42 426Q42 502 92 541T247 581Q306 581 346 575T425 558Q444 553 444 535V454Q444 435 427 435H424Q413 436 393 438T350 443T302 446T258 448Q229 448 217 442T205 419Q205 408 213 401T236 384L360 313Q391 295 410 277T441 239T457 199T461 159ZM451 772Q451 767 447 762L358 645Q351 637 347 634T331 630H171Q160 630 156 633T144 645L56 762Q52 767 52 772Q52 779 61 779H164Q174 779 178 777T188 767L251 697L315 767Q321 774 325 776T339 779H442Q451 779 451 772Z"  />
<glyph unicode="&#x178;" horiz-adv-x="647" d="M626 728Q626 723 625 721L474 375Q459 340 443 323T409 298V20Q409 12 403 6T389 0H258Q250 0 244 6T238 20V298Q220 306 204 323T172 375L21 721Q20 723 20 728Q20 734 24 738T36 743H180Q188 743 193 738T200 726L308 444Q312 434 315 432T323 429Q328 429 331 431T338 444L446 726Q448 733 453 738T466 743H610Q618 743 622 739T626 728ZM500 818Q500 810 493 804T478 798H384Q376 798 370 804T363 818V911Q363 919 369 925T384 931H478Q486 931 493 925T500 911V818ZM283 818Q283 810 277 804T262 798H168Q160 798 153 804T146 818V911Q146 919 153 925T168 931H262Q270 931 276 925T283 911V818Z"  />
<glyph unicode="&#x17D;" horiz-adv-x="615" d="M565 20Q565 12 559 6T545 0H91Q74 0 62 7T50 31V111Q50 122 53 131T65 155L344 577Q348 582 348 587Q348 595 337 595H88Q80 595 74 600T68 614V724Q68 732 74 737T88 743H519Q535 743 547 736T559 715V708Q559 705 559 701T560 691Q560 680 560 669T559 647V624Q559 611 551 598L269 166Q264 159 264 155Q264 148 275 148H545Q553 148 559 143T565 130V20H565ZM515 936Q515 931 511 926L422 809Q415 801 411 798T395 794H235Q224 794 220 797T208 809L120 926Q116 931 116 936Q116 943 125 943H228Q238 943 242 941T252 931L315 861L379 931Q385 938 389 940T403 943H506Q515 943 515 936Z"  />
<glyph unicode="&#x17E;" horiz-adv-x="515" d="M472 20Q472 12 466 6T452 0H77Q63 0 53 9T43 33V97Q43 108 46 116T57 135L274 431Q277 435 277 438Q277 443 270 443H69Q52 443 52 459V553Q52 561 58 567T72 573H437Q451 573 460 563T470 539V465Q470 457 468 449T459 430L252 147Q249 142 249 140Q249 136 256 136H454Q462 136 467 132T472 120V20H472ZM468 772Q468 767 464 762L375 645Q368 637 364 634T348 630H188Q177 630 173 633T161 645L73 762Q69 767 69 772Q69 779 78 779H181Q191 779 195 777T205 767L268 697L332 767Q338 774 342 776T356 779H459Q468 779 468 772Z"  />
<glyph unicode="&#x192;" horiz-adv-x="645" d="M612 755L602 680Q600 662 578 662H513Q476 662 464 652T447 613L425 454H559Q577 454 577 438V435L565 351Q563 343 557 337T542 330H408L362 5Q355 -45 336 -77T288 -129T225 -157T151 -165Q121 -165 94 -162T52 -156Q41 -154 38 -150T34 -141V-137L44 -62Q46 -44 68 -44H133Q170 -44 182 -34T199 5L244 330H118Q110 330 105 335T100 348V351L112 435Q115 454 135 454H262L284 613Q291 663 310 695T357 747T420 775T495 783Q525 783 552 780T594 774Q605 772 608 768T612 759V755Z"  />
<glyph unicode="&#x2C6;" horiz-adv-x="443" d="M421 637Q421 630 412 630H309Q299 630 295 632T285 642L222 712L158 642Q152 635 148 633T134 630H31Q22 630 22 637Q22 642 26 647L115 764Q122 772 126 775T142 779H302Q313 779 317 776T329 764L417 647Q421 642 421 637Z"  />
<glyph unicode="&#x2DC;" horiz-adv-x="497" d="M444 746Q444 680 412 653T322 626Q307 626 287 631T251 648L209 677Q183 695 168 695Q158 695 152 690T145 668V649Q145 632 130 632H59Q44 632 44 649V668Q44 733 77 760T167 787Q182 787 201 782T237 766L280 738Q293 730 302 725T320 720Q331 720 337 725T343 747V766Q343 782 359 782H429Q444 782 444 766V746H444Z"  />
<glyph unicode="&#x2013;" horiz-adv-x="309" d="M324 251Q324 243 318 238T304 232H4Q-15 232 -15 251V330Q-15 338 -10 344T4 350H304Q312 350 318 344T324 330V251H324Z"  />
<glyph unicode="&#x2014;" horiz-adv-x="599" d="M614 251Q614 243 608 238T594 232H4Q-15 232 -15 251V330Q-15 338 -10 344T4 350H594Q602 350 608 344T614 330V251H614Z"  />
<glyph unicode="&#x2018;" horiz-adv-x="253" d="M229 757Q229 755 229 753T228 748L174 529Q170 510 154 510H35Q23 510 23 521Q23 523 25 529L100 748Q104 758 107 762T119 767H220Q229 767 229 757Z"  />
<glyph unicode="&#x2019;" horiz-adv-x="253" d="M230 756Q230 754 228 748L153 529Q149 519 146 515T134 510H33Q24 510 24 520Q24 522 24 524T25 529L79 748Q83 767 99 767H218Q230 767 230 756Z"  />
<glyph unicode="&#x201A;" horiz-adv-x="253" d="M231 153Q231 150 229 146L133 -78Q129 -86 126 -92T114 -98H26Q19 -98 14 -94T9 -83Q9 -81 9 -81T10 -78L74 146Q79 165 94 165H216Q231 165 231 153Z"  />
<glyph unicode="&#x201C;" horiz-adv-x="473" d="M449 757Q449 755 449 753T448 748L394 529Q390 510 374 510H255Q243 510 243 521Q243 523 245 529L319 748Q325 767 338 767H440Q449 767 449 757ZM229 757Q229 755 229 753T228 748L174 529Q170 510 154 510H35Q23 510 23 521Q23 523 25 529L100 748Q104 758 107 762T119 767H220Q229 767 229 757Z"  />
<glyph unicode="&#x201D;" horiz-adv-x="473" d="M450 756Q450 754 448 748L373 529Q369 519 366 515T354 510H253Q244 510 244 520Q244 522 244 524T245 529L299 748Q303 767 319 767H438Q450 767 450 756ZM230 756Q230 754 228 748L154 529Q148 510 135 510H33Q24 510 24 520Q24 522 24 524T25 529L80 748Q84 767 100 767H218Q230 767 230 756Z"  />
<glyph unicode="&#x201E;" horiz-adv-x="473" d="M460 153Q460 150 458 146L362 -78Q358 -86 355 -92T343 -98H255Q248 -98 243 -94T238 -83Q238 -81 238 -81T239 -78L303 146Q308 165 323 165H445Q460 165 460 153ZM231 153Q231 150 229 146L133 -78Q129 -86 126 -92T114 -98H26Q19 -98 14 -94T9 -83Q9 -81 9 -81T10 -78L74 146Q79 165 94 165H216Q231 165 231 153Z"  />
<glyph unicode="&#x2020;" horiz-adv-x="440" d="M410 465Q410 449 391 449H299V14Q299 6 295 0T283 -6H151Q143 -6 139 0T135 14V449H49Q30 449 30 465V569Q30 584 49 584H135V748Q135 756 139 761T152 767H283Q291 767 295 762T299 748V584H391Q410 584 410 569V465H410Z"  />
<glyph unicode="&#x2021;" horiz-adv-x="440" d="M410 243Q410 227 391 227H299V14Q299 6 295 0T283 -6H151Q143 -6 139 0T135 14V227H49Q30 227 30 243V346Q30 361 49 361H135V449H49Q30 449 30 465V569Q30 584 49 584H135V748Q135 756 139 761T152 767H283Q291 767 295 762T299 748V584H391Q410 584 410 569V465Q410 449 391 449H299V361H391Q410 361 410 346V243H410Z"  />
<glyph unicode="&#x2022;" horiz-adv-x="418" d="M376 367Q376 332 363 302T327 249T274 213T209 200Q174 200 144 213T91 249T55 302T42 367Q42 401 55 431T91 485T144 521T209 534Q243 534 273 521T327 485T363 432T376 367Z"  />
<glyph unicode="&#x2026;" horiz-adv-x="767" d="M717 20Q717 12 711 6T697 0H579Q571 0 565 6T559 20V146Q559 154 565 159T579 165H697Q705 165 711 160T717 146V20ZM463 20Q463 12 457 6T443 0H325Q317 0 311 6T305 20V146Q305 154 311 159T325 165H443Q451 165 457 160T463 146V20ZM209 20Q209 12 203 6T189 0H71Q63 0 57 6T51 20V146Q51 154 57 159T71 165H189Q197 165 203 160T209 146V20Z"  />
<glyph unicode="&#x2030;" horiz-adv-x="1193" d="M1155 166Q1155 78 1117 36T1007 -6Q936 -6 898 36T859 166V241Q859 329 897 371T1007 413Q1078 413 1116 371T1155 241V166ZM801 166Q801 78 763 36T654 -6Q583 -6 545 36T506 166V241Q506 329 544 371T654 413Q725 413 763 371T801 241V166ZM698 735Q698 728 694 723L278 21Q272 10 268 5T255 0H152Q141 0 141 11Q141 15 144 21L560 723Q567 734 572 738T585 743H688Q698 743 698 735ZM334 502Q334 414 296 372T186 330Q115 330 77 372T38 502V577Q38 665 76 706T186 748Q257 748 295 707T334 577V502ZM1054 241Q1054 292 1042 309T1007 326Q985 326 972 309T959 241V166Q959 115 972 98T1007 81Q1029 81 1041 98T1054 166V241ZM701 241Q701 292 689 309T654 326Q632 326 619 309T606 241V166Q606 115 619 98T654 81Q676 81 688 98T701 166V241ZM233 577Q233 628 221 645T186 662Q164 662 151 645T138 577V502Q138 451 151 434T186 416Q208 416 220 433T233 502V577Z"  />
<glyph unicode="&#x2039;" horiz-adv-x="413" d="M370 74Q370 63 356 63H235Q224 63 218 65T205 75L45 260Q40 266 38 273T35 286Q35 292 37 299T45 312L205 497Q211 504 217 506T235 509H356Q370 509 370 498Q370 495 366 489L190 286L366 83Q370 77 370 74Z"  />
<glyph unicode="&#x203A;" horiz-adv-x="413" d="M378 286Q378 280 376 273T368 260L208 75Q202 68 196 66T178 63H57Q43 63 43 74Q43 77 47 83L223 286L47 489Q43 495 43 498Q43 509 57 509H178Q189 509 195 507T208 497L368 312Q373 306 375 299T378 286Z"  />
<glyph unicode="&#x20AC;" horiz-adv-x="645" d="M578 31Q578 20 573 16T556 8Q540 3 505 -3T417 -9Q364 -9 313 4T221 49T151 132T114 258H87Q79 258 73 264T67 278V322Q67 330 73 336T87 342H111V404H87Q79 404 73 410T67 424V468Q67 476 73 482T87 488H114Q122 561 151 611T221 693T313 737T417 751Q470 751 505 745T556 734Q567 731 572 727T578 712V615Q578 595 559 595H556Q527 597 494 600T418 603Q396 603 375 598T337 579T307 544T288 488H501Q518 488 518 473Q518 470 517 468L505 424Q499 404 485 404H284V342H467Q473 342 477 339T481 330V327L466 267Q464 258 452 258H288Q294 223 306 201T336 165T375 146T418 140Q460 140 493 143T556 148H559Q578 148 578 128V31H578Z"  />
<glyph unicode="&#x2122;" horiz-adv-x="830" d="M791 349Q791 339 780 339H702Q691 339 691 349V591Q691 612 688 625T677 645T656 654T621 657V349Q621 339 610 339H531Q521 339 521 349V657Q501 657 484 656T451 653V349Q451 339 441 339H363Q352 339 352 349V704Q352 723 358 729T380 738Q434 743 481 745T570 747Q623 747 664 743T733 722T776 674T791 591V349ZM320 673Q320 660 307 660H225V352Q225 339 212 339H135Q122 339 122 352V660H38Q25 660 25 673V730Q25 743 38 743H307Q320 743 320 730V673Z"  />

</font>
</defs>
</svg>
